<svg xmlns="http://www.w3.org/2000/svg" viewBox="0 0 64 64" fill="none"><path d="M0 25.6C0 16.64 0 12.159 1.744 8.736C3.278 5.726 5.726 3.278 8.736 1.744C12.158 0 16.64 0 25.6 0H38.4C47.36 0 51.841 0 55.264 1.744C58.275 3.278 60.722 5.726 62.256 8.736C64 12.158 64 16.64 64 25.6V38.4C64 47.36 64 51.841 62.256 55.264C60.722 58.275 58.275 60.722 55.264 62.256C51.842 64 47.36 64 38.4 64H25.6C16.64 64 12.159 64 8.736 62.256C5.726 60.722 3.278 58.275 1.744 55.264C0 51.842 0 47.36 0 38.4V25.6Z" fill="url(#a)"/><foreignObject x="7.111" y="7.111" width="49.778" height="49.778"><div xmlns="http://www.w3.org/1999/xhtml" style="width:100%;height:100%;border-radius:50%;background:conic-gradient(rgb(175,198,238) 0deg,rgb(232,182,200) 15deg,rgb(230,222,188) 30deg,rgb(208,203,222) 50deg,rgb(195,190,215) 90deg,rgb(208,203,222) 130deg,rgb(230,222,188) 150deg,rgb(232,182,200) 165deg,rgb(175,198,238) 180deg,rgb(232,182,200) 195deg,rgb(230,222,188) 210deg,rgb(208,203,222) 230deg,rgb(195,190,215) 270deg,rgb(208,203,222) 310deg,rgb(230,222,188) 330deg,rgb(232,182,200) 345deg,rgb(175,198,238) 360deg)"></div></foreignObject><circle cx="32" cy="32" r="8.889" fill="#18181B"/><defs><linearGradient id="a" x1="32" y1="0" x2="32" y2="64" gradientUnits="userSpaceOnUse"><stop stop-color="#1C1C20"/><stop offset="1" stop-color="#121214"/></linearGradient></defs></svg>
