<svg xmlns="http://www.w3.org/2000/svg" fill="none" viewBox="0 0 72 72"><g clip-path="url(#a)"><path fill="#F7F7F7" d="M0 28.8C0 18.72 0 13.679 1.962 9.828a18 18 0 0 1 7.866-7.866C13.678 0 18.72 0 28.8 0h14.4c10.08 0 15.121 0 18.972 1.962a18 18 0 0 1 7.866 7.866C72 13.678 72 18.72 72 28.8v14.4c0 10.08 0 15.121-1.962 18.972a18 18 0 0 1-7.866 7.866C58.322 72 53.28 72 43.2 72H28.8c-10.08 0-15.121 0-18.972-1.962a18 18 0 0 1-7.866-7.866C0 58.322 0 53.28 0 43.2V28.8Z"/><path fill="#767C76" d="M36.032 22.68c5.503 0 10.034 1.736 13.595 5.142C53.187 31.226 55 35.566 55 40.84c0 5.275-1.813 9.614-5.438 13.02-3.56 3.404-8.092 5.14-13.53 5.14-5.502 0-10.098-1.67-13.659-5.074C18.813 50.521 17 46.115 17 40.84c0-5.274 1.813-9.614 5.373-13.019 3.56-3.405 8.157-5.14 13.66-5.14Zm0 5.208c-3.948 0-7.185 1.202-9.71 3.605-2.525 2.404-3.755 5.542-3.755 9.347 0 3.806 1.23 6.944 3.755 9.347 2.525 2.404 5.762 3.605 9.71 3.605 3.885 0 7.057-1.201 9.581-3.605 2.525-2.403 3.755-5.541 3.755-9.347 0-3.805-1.23-6.943-3.755-9.347-2.524-2.403-5.697-3.605-9.58-3.605ZM46.714 13v4.807H25.222V13h21.492Z"/></g><defs><clipPath id="a"><path fill="#fff" d="M0 0h72v72H0z"/></clipPath></defs></svg>