<svg xmlns="http://www.w3.org/2000/svg" viewBox="0 0 72 72" fill="none"><g clip-path="url(#a)"><path fill="url(#b)" d="M0 28.8C0 18.72 0 13.679 1.962 9.828a18 18 0 0 1 7.866-7.866C13.678 0 18.72 0 28.8 0h14.4c10.08 0 15.121 0 18.972 1.962a18 18 0 0 1 7.866 7.866C72 13.678 72 18.72 72 28.8v14.4c0 10.08 0 15.121-1.962 18.972a18 18 0 0 1-7.866 7.866C58.322 72 53.28 72 43.2 72H28.8c-10.08 0-15.121 0-18.972-1.962a18 18 0 0 1-7.866-7.866C0 58.322 0 53.28 0 43.2z"/><g clip-path="url(#c)"><path fill="#fff" d="M47.787 16.358a3.75 3.75 0 0 1 4.463 3.682v26.804q-.002.133-.024.261a6.56 6.56 0 0 1-13.101-.542 6.563 6.563 0 0 1 10.125-5.511V28.256L28.375 32.3v19.169q-.002.133-.024.261a6.56 6.56 0 0 1-13.101-.542 6.563 6.563 0 0 1 10.125-5.511V23.794a3.75 3.75 0 0 1 3.037-3.682zM21.813 47.625a3.563 3.563 0 1 0 0 7.125 3.563 3.563 0 0 0 0-7.125M45.688 43a3.563 3.563 0 1 0 0 7.125 3.563 3.563 0 0 0 0-7.125m3.562-22.96a.75.75 0 0 0-.893-.736l-19.375 3.754a.75.75 0 0 0-.607.736v5.45l20.875-4.045z"/></g></g><defs><clipPath id="a"><path fill="#fff" d="M0 0h72v72H0z"/></clipPath><clipPath id="c"><path fill="#fff" d="M9 9h54v54H9z"/></clipPath><linearGradient id="b" x1="36" x2="36" y1="0" y2="72" gradientUnits="userSpaceOnUse"><stop stop-color="#fd335f"/><stop offset="1" stop-color="#e80939"/></linearGradient></defs></svg>