<svg xmlns="http://www.w3.org/2000/svg" viewBox="0 0 72 72" fill="none"><path fill="#421870" d="M0 28.8C0 18.72 0 13.679 1.962 9.828a18 18 0 0 1 7.866-7.866C13.678 0 18.72 0 28.8 0h14.4c10.08 0 15.121 0 18.972 1.962a18 18 0 0 1 7.866 7.866C72 13.678 72 18.72 72 28.8v14.4c0 10.08 0 15.121-1.962 18.972a18 18 0 0 1-7.866 7.866C58.322 72 53.28 72 43.2 72H28.8c-10.08 0-15.121 0-18.972-1.962a18 18 0 0 1-7.866-7.866C0 58.322 0 53.28 0 43.2V28.8Z"/><g fill="#fff" opacity=".8"><path d="M42.5 23a6.5 6.5 0 1 0-13 0v13a6.5 6.5 0 1 0 13 0V23Zm3.25 13c0 5.385-4.365 9.75-9.75 9.75s-9.75-4.365-9.75-9.75V23c0-5.385 4.365-9.75 9.75-9.75s9.75 4.365 9.75 9.75v13ZM34.375 58.75v-8.125a1.625 1.625 0 1 1 3.25 0v8.125a1.625 1.625 0 1 1-3.25 0Z"/><path d="M19.75 36A1.625 1.625 0 1 1 23 36a13 13 0 1 0 26 0 1.625 1.625 0 1 1 3.25 0 16.25 16.25 0 0 1-32.5 0Z"/></g><g fill="#fff" opacity=".8" style="mix-blend-mode:overlay"><path d="M42.5 25a6.5 6.5 0 1 0-13 0v13a6.5 6.5 0 1 0 13 0V25Zm3.25 13c0 5.385-4.365 9.75-9.75 9.75s-9.75-4.365-9.75-9.75V25c0-5.385 4.365-9.75 9.75-9.75s9.75 4.365 9.75 9.75v13ZM34.375 60.75v-8.125a1.625 1.625 0 1 1 3.25 0v8.125a1.625 1.625 0 1 1-3.25 0Z"/><path d="M19.75 38A1.625 1.625 0 1 1 23 38a13 13 0 1 0 26 0 1.625 1.625 0 1 1 3.25 0 16.25 16.25 0 0 1-32.5 0Z"/></g><g fill="#fff" clip-path="url(#a)" opacity=".8" style="mix-blend-mode:overlay"><path d="M42.5 25a6.5 6.5 0 1 0-13 0v13a6.5 6.5 0 1 0 13 0V25Zm3.25 13c0 5.385-4.365 9.75-9.75 9.75s-9.75-4.365-9.75-9.75V25c0-5.385 4.365-9.75 9.75-9.75s9.75 4.365 9.75 9.75v13ZM34.375 60.75v-8.125a1.625 1.625 0 1 1 3.25 0v8.125a1.625 1.625 0 1 1-3.25 0Z"/><path d="M19.75 38A1.625 1.625 0 1 1 23 38a13 13 0 1 0 26 0 1.625 1.625 0 1 1 3.25 0 16.25 16.25 0 0 1-32.5 0Z"/></g><defs><clipPath id="a"><path fill="#fff" d="M10 12h52v52H10z"/></clipPath></defs></svg>