<svg xmlns="http://www.w3.org/2000/svg" viewBox="0 0 64 64" fill="none"><path d="M0 25.6C0 16.64 0 12.159 1.744 8.736C3.278 5.726 5.726 3.278 8.736 1.744C12.158 0 16.64 0 25.6 0H38.4C47.36 0 51.841 0 55.264 1.744C58.275 3.278 60.722 5.726 62.256 8.736C64 12.158 64 16.64 64 25.6V38.4C64 47.36 64 51.841 62.256 55.264C60.722 58.275 58.275 60.722 55.264 62.256C51.842 64 47.36 64 38.4 64H25.6C16.64 64 12.159 64 8.736 62.256C5.726 60.722 3.278 58.275 1.744 55.264C0 51.842 0 47.36 0 38.4V25.6Z" fill="#000"/><path d="M0 25.6C0 16.64 0 12.159 1.744 8.736C3.278 5.726 5.726 3.278 8.736 1.744C12.158 0 16.64 0 25.6 0H38.4C47.36 0 51.841 0 55.264 1.744C58.275 3.278 60.722 5.726 62.256 8.736C64 12.158 64 16.64 64 25.6V38.4C64 47.36 64 51.841 62.256 55.264C60.722 58.275 58.275 60.722 55.264 62.256C51.842 64 47.36 64 38.4 64H25.6C16.64 64 12.159 64 8.736 62.256C5.726 60.722 3.278 58.275 1.744 55.264C0 51.842 0 47.36 0 38.4V25.6Z" transform="matrix(.9921875 0 0 .9921875 .25 .25)" fill="url(#z)" stroke="url(#y)" stroke-width=".5"/><g transform="scale(.888889)"><path fill="#f1f1f1" d="M17.792 27.579a9.142 9.142 0 0 1 10.924 8.965v16.388a1.587 1.587 0 0 1-2.721 1.15 1.58 1.58 0 0 1-.448-1.15V36.544a5.973 5.973 0 1 0-11.508 2.237 5.972 5.972 0 0 0 10.317 1.342v4.21a9.1 9.1 0 0 1-4.778 1.35l-.002.002a9.142 9.142 0 0 1-1.784-18.106m41.558-.022a2.278 2.278 0 0 1 1.792 3.616L52.575 42.63h7.539c.805 0 1.457.71 1.457 1.584 0 .876-.652 1.585-1.457 1.585H50.8a2.282 2.282 0 0 1-1.82-3.653l8.55-11.42h-7.424a1.583 1.583 0 0 1-1.584-1.584c0-.875.762-1.584 1.639-1.584zm-27.505-8.995a1.584 1.584 0 0 1 1.584 1.584v16.39a5.972 5.972 0 1 0 1.194-3.575v-4.215a9.1 9.1 0 0 1 4.779-1.349v-.002a9.14 9.14 0 1 1-3.498 17.585 9.14 9.14 0 0 1-5.643-8.444v-16.39a1.584 1.584 0 0 1 1.584-1.584"/></g><defs><linearGradient id="y" x1="0" y1="0" x2="0" y2="64" gradientUnits="userSpaceOnUse"><stop stop-color="#fff" stop-opacity=".17"/><stop offset=".2" stop-color="#fff" stop-opacity="0"/><stop offset=".8" stop-color="#fff" stop-opacity="0"/><stop offset="1" stop-color="#fff" stop-opacity=".15"/></linearGradient><linearGradient id="z" x1="0" y1="0" x2="0" y2="64" gradientUnits="userSpaceOnUse"><stop stop-color="#fff" stop-opacity=".03"/><stop offset=".15" stop-color="#fff" stop-opacity="0"/><stop offset=".8" stop-color="#fff" stop-opacity="0"/><stop offset="1" stop-color="#fff" stop-opacity=".035"/></linearGradient></defs></svg>
