<svg xmlns="http://www.w3.org/2000/svg" width="32" height="32" fill="none"><g clip-path="url(#a)"><path fill="#EDEDED" d="M0 12.8c0-4.48 0-6.72.872-8.432A8 8 0 0 1 4.368.872C6.08 0 8.32 0 12.8 0h6.4c4.48 0 6.72 0 8.432.872a8 8 0 0 1 3.496 3.496C32 6.08 32 8.32 32 12.8v6.4c0 4.48 0 6.72-.872 8.432a8 8 0 0 1-3.496 3.496C25.92 32 23.68 32 19.2 32h-6.4c-4.48 0-6.72 0-8.432-.872a8 8 0 0 1-3.496-3.496C0 25.92 0 23.68 0 19.2v-6.4Z"/><path stroke="#767676" stroke-linecap="round" stroke-linejoin="round" stroke-width="1.5" d="M9.25 7.75v6.75M22.75 7.75v9.75M16 7.75V10M9.25 19v5.25"/><path stroke="#4B4B4B" stroke-linecap="round" stroke-linejoin="round" stroke-width="1.5" d="M9.25 19a2.25 2.25 0 1 0 0-4.5 2.25 2.25 0 0 0 0 4.5Z"/><path stroke="#767676" stroke-linecap="round" stroke-linejoin="round" stroke-width="1.5" d="M22.75 22v2.25M16 14.5v9.75"/><path stroke="#4B4B4B" stroke-linecap="round" stroke-linejoin="round" stroke-width="1.5" d="M16 14.5a2.25 2.25 0 1 0 0-4.5 2.25 2.25 0 0 0 0 4.5ZM22.75 22a2.25 2.25 0 1 0 0-4.5 2.25 2.25 0 0 0 0 4.5Z"/></g><defs><clipPath id="a"><path fill="#fff" d="M0 0h32v32H0z"/></clipPath></defs></svg>