<svg xmlns="http://www.w3.org/2000/svg" width="32" height="32" fill="none"><g clip-path="url(#a)"><path fill="#EDEDED" d="M0 12.8c0-4.48 0-6.72.872-8.432A8 8 0 0 1 4.368.872C6.08 0 8.32 0 12.8 0h6.4c4.48 0 6.72 0 8.432.872a8 8 0 0 1 3.496 3.496C32 6.08 32 8.32 32 12.8v6.4c0 4.48 0 6.72-.872 8.432a8 8 0 0 1-3.496 3.496C25.92 32 23.68 32 19.2 32h-6.4c-4.48 0-6.72 0-8.432-.872a8 8 0 0 1-3.496-3.496C0 25.92 0 23.68 0 19.2v-6.4Z"/><path fill="#4B4B4B" d="M18.889 10.222a2.889 2.889 0 0 0-5.778 0V16a2.889 2.889 0 1 0 5.778 0v-5.778ZM20.333 16a4.333 4.333 0 1 1-8.666 0v-5.778a4.333 4.333 0 0 1 8.666 0V16ZM15.278 26.111v-3.61a.722.722 0 0 1 1.444 0v3.61a.722.722 0 0 1-1.444 0Z"/><path fill="#4B4B4B" d="M8.778 16a.722.722 0 1 1 1.444 0 5.778 5.778 0 0 0 11.556 0 .722.722 0 0 1 1.444 0 7.222 7.222 0 0 1-14.444 0Z"/></g><defs><clipPath id="a"><path fill="#fff" d="M0 0h32v32H0z"/></clipPath></defs></svg>