<svg xmlns="http://www.w3.org/2000/svg" width="32" height="32" fill="none"><g clip-path="url(#a)"><path fill="#EDEDED" d="M0 12.8c0-4.48 0-6.72.872-8.432A8 8 0 0 1 4.368.872C6.08 0 8.32 0 12.8 0h6.4c4.48 0 6.72 0 8.432.872a8 8 0 0 1 3.496 3.496C32 6.08 32 8.32 32 12.8v6.4c0 4.48 0 6.72-.872 8.432a7.998 7.998 0 0 1-3.496 3.496C25.92 32 23.68 32 19.2 32h-6.4c-4.48 0-6.72 0-8.432-.872a8 8 0 0 1-3.496-3.496C0 25.92 0 23.68 0 19.2v-6.4Z"/><path fill="#4B4B4B" d="M15.33 25.354c.12-.403.579-.682.99-.568.28.06.503.28.609.54.028.138.063.28.025.42-.061.385-.425.704-.817.694-.11.002-.216-.026-.321-.05a1.037 1.037 0 0 1-.477-.484c-.041-.18-.075-.373-.008-.552Zm-2.355-1.075c.328-.054.69.063.878.348.184.238.18.567.08.84-.118.2-.297.36-.512.45-.163.01-.33.028-.492-.006a.847.847 0 0 1-.572-.583c-.038-.23-.034-.487.11-.682.117-.183.308-.297.508-.367Zm6.055.001c.19-.014.394-.02.567.076.222.104.365.315.449.538.017.18.013.365-.041.54-.108.21-.286.373-.5.473-.165.027-.334.03-.5.01a.848.848 0 0 1-.597-.615c-.027-.204-.03-.428.085-.608a.94.94 0 0 1 .537-.414Zm2.67-1.34c.19-.01.39-.026.565.07l.063.02c.185.13.327.311.4.526.006.168.028.344-.038.503a.912.912 0 0 1-.533.514.877.877 0 0 1-1.014-.442L21.1 24l-.041-.22c.015-.09.029-.18.039-.27a.978.978 0 0 1 .603-.569Zm-11.316-.009c.348-.013.66.223.794.536.084.29.048.626-.165.853a.78.78 0 0 1-.675.273c-.337.005-.63-.242-.751-.544a1.556 1.556 0 0 1-.04-.397c.018-.06.034-.123.048-.184.132-.31.442-.55.789-.537Zm5.219-1.254c.205-.18.497-.207.756-.159a.84.84 0 0 1 .585.607c.109.39-.122.82-.485.982a1.057 1.057 0 0 1-.667-.006.957.957 0 0 1-.494-.614c-.036-.3.06-.62.305-.81Zm-7.647-.859c.202-.009.42-.043.607.057.274.134.485.427.466.74.034.375-.25.723-.6.825-.265.062-.566.018-.772-.173-.345-.277-.394-.852-.093-1.177.103-.126.249-.203.392-.272Zm16.01-.058a.807.807 0 0 1 .785.377c.132.191.126.437.098.658-.11.487-.716.78-1.163.546-.416-.177-.595-.708-.415-1.113.145-.248.389-.477.695-.468Zm-10.978-.06c.276.051.537.226.646.491.087.174.065.373.056.56-.11.326-.398.592-.75.62-.437.05-.873-.313-.902-.75v-.18c.03-.455.5-.818.95-.74Zm6.263-.048c.274-.036.57.036.763.243.132.12.193.292.248.456.018.253-.048.52-.23.703-.183.21-.473.29-.745.271-.313-.08-.594-.306-.676-.627-.124-.404.126-.84.503-1l.137-.046Zm-8.65-2.338c.14.058.29.112.403.218.2.188.303.474.26.747-.063.452-.527.773-.972.711-.292-.077-.564-.278-.653-.576-.118-.3-.011-.656.22-.872.107-.112.255-.164.392-.227h.35Zm10.8-.004c.195-.05.409-.074.6.004.238.096.437.3.509.548.029.168.012.34.002.508-.116.263-.336.493-.626.55-.394.103-.8-.148-.968-.5a1.436 1.436 0 0 1-.045-.497c.052-.12.097-.248.18-.352.09-.116.222-.189.347-.26ZM6.523 18.1c.486-.174 1.063.236 1.072.75a.828.828 0 0 1-.53.831c-.21.093-.45.06-.662-.01-.16-.104-.318-.229-.4-.406-.1-.195-.063-.425-.05-.635.113-.242.3-.466.57-.53Zm18.869-.045c.276.023.556.16.7.405.126.183.12.416.1.63-.033.236-.216.411-.396.55-.282.133-.633.14-.894-.047-.325-.215-.434-.654-.31-1.013.152-.3.456-.524.8-.525Zm-10.99-.138c.398.008.716.342.798.716.012.267-.066.556-.275.736a.874.874 0 0 1-.833.187c-.322-.125-.583-.439-.573-.794-.01-.227.098-.436.237-.607.184-.144.405-.265.647-.238Zm3.42.007c.158.067.323.138.437.273.153.148.19.366.227.566-.036.304-.192.613-.484.743-.176.095-.388.074-.58.057-.351-.087-.641-.432-.62-.8a.812.812 0 0 1 .553-.799c.148-.06.31-.046.467-.04ZM8.943 15.3c.249-.19.594-.194.877-.084.168.11.327.25.397.443.076.16.057.34.053.512-.08.208-.2.411-.398.524-.334.195-.806.135-1.06-.165-.31-.348-.257-.96.13-1.23h.002Zm3.734-.156a.815.815 0 0 1 .829.547c.079.184.057.387.01.575-.13.295-.414.546-.75.537a.811.811 0 0 1-.766-.399c-.146-.225-.143-.507-.063-.755.137-.28.416-.513.74-.505Zm6.195.093c.315-.166.74-.118.99.145.095.086.15.203.215.311.07.322.02.697-.254.91-.233.23-.592.243-.887.15-.275-.149-.51-.428-.494-.756-.03-.314.167-.607.43-.76Zm-12.923-.073a1.14 1.14 0 0 1 .553.034c.186.103.34.253.44.441.067.217.075.452.003.668-.1.19-.256.343-.446.44l-.092.042c-.282.042-.601.02-.807-.202-.28-.23-.316-.63-.21-.957.124-.214.312-.406.559-.466Zm10.059-.02c.517-.025.95.54.8 1.032a.848.848 0 0 1-.585.607c-.19.04-.388.024-.573-.034a1.003 1.003 0 0 1-.415-.41 7.75 7.75 0 0 0-.067-.168 1.375 1.375 0 0 1 .045-.525c.146-.297.452-.53.795-.502Zm6.165.082c.22-.118.486-.095.719-.027.179.105.348.246.426.444.082.165.062.354.058.532-.087.237-.243.463-.483.564-.18.09-.386.061-.58.052-.122-.065-.255-.118-.355-.216-.098-.103-.156-.233-.222-.357-.01-.16-.028-.326.01-.485a.86.86 0 0 1 .427-.507Zm3.866-.064a.855.855 0 0 1 .625.741.847.847 0 0 1-.488.833c-.178.094-.386.063-.578.057-.135-.064-.277-.127-.38-.238-.116-.118-.17-.279-.233-.428-.033-.33.103-.69.398-.864.19-.13.434-.139.656-.1Zm-9.026-2.527c.22-.268.608-.322.924-.222.19.07.34.215.446.385.097.217.09.46.053.69-.101.18-.228.362-.421.452a.84.84 0 0 1-.994-.17c-.097-.104-.151-.238-.211-.364-.027-.27-.001-.57.203-.77Zm-2.388-.248c.236.106.44.285.53.533.038.163.069.336.01.5-.065.252-.267.442-.491.561-.223.063-.473.08-.683-.032-.378-.173-.578-.656-.417-1.043.08-.245.292-.413.518-.518.177-.019.356-.02.533 0Zm10.179-.127a.838.838 0 0 1 1.09.12c.238.232.267.6.167.902-.15.274-.426.508-.753.495-.375.034-.725-.245-.833-.594-.034-.158-.017-.32-.01-.48.08-.168.18-.335.339-.443ZM6.196 12.2c.198-.147.458-.15.69-.109a.825.825 0 0 1 .572.552c.125.344-.032.758-.335.954a.85.85 0 0 1-.973-.034c-.172-.116-.255-.315-.326-.503-.038-.326.087-.68.372-.86Zm3.903-.205a.818.818 0 0 1 .848.234c.17.171.235.42.234.655-.055.28-.22.546-.486.67-.162.088-.351.087-.53.08-.218-.083-.44-.197-.552-.412-.146-.23-.142-.52-.051-.772.123-.203.298-.394.537-.455Zm10.906.175c.205-.264.563-.354.882-.29.262.1.472.301.58.56.013.195.044.405-.04.591-.126.291-.43.52-.756.491-.374.04-.723-.244-.823-.594a.868.868 0 0 1 .157-.758Zm-1.798-2.643c.336-.01.67.207.792.522.145.354.02.803-.308 1.011-.242.175-.57.15-.84.07-.266-.156-.478-.436-.457-.755-.035-.448.373-.849.813-.848ZM12.476 9.5c.17-.04.346-.013.513.03.232.123.435.323.494.586.057.158.017.324-.016.482-.077.16-.175.318-.328.414-.135.1-.304.123-.463.152-.1-.02-.201-.036-.302-.05-.302-.139-.552-.44-.543-.783a.836.836 0 0 1 .645-.83Zm-5.13.292a.845.845 0 0 1 1.01-.235c.358.156.565.59.457.965a.828.828 0 0 1-.593.603 1.625 1.625 0 0 1-.518-.01c-.206-.115-.41-.272-.484-.506-.06-.143-.054-.3-.05-.452.05-.125.094-.258.179-.365h-.001Zm16.53-.45c.462-.044.89.402.847.86.003.392-.326.745-.711.794-.104.007-.21.002-.313 0-.284-.098-.55-.313-.618-.618-.03-.21-.035-.442.083-.628a.78.78 0 0 1 .713-.408Zm-8.09-.63c.218-.027.457-.034.646.094.28.155.407.484.417.791-.05.152-.083.318-.193.44-.095.11-.209.2-.336.27a1.373 1.373 0 0 1-.534.04.976.976 0 0 1-.58-.526c-.05-.16-.045-.33-.037-.495.097-.284.315-.547.617-.615ZM10.292 7.29l.15.042c.332.11.595.431.574.79.035.444-.37.85-.808.847a.837.837 0 0 1-.84-.657c-.03-.212-.017-.442.109-.625.123-.225.367-.34.606-.4l.209.003Zm11.21-.044c.337-.045.697.105.872.401.143.216.116.488.08.732-.113.22-.286.424-.53.498a.84.84 0 0 1-1.025-.435c-.098-.179-.073-.388-.067-.584a.965.965 0 0 1 .53-.566c.047-.014.094-.03.14-.046ZM18.727 5.9c.312-.03.654.087.833.357.2.27.2.665.015.944-.196.306-.61.462-.956.34-.225-.07-.4-.246-.512-.448a2.083 2.083 0 0 1-.017-.054c-.068-.253-.071-.55.09-.769.122-.195.337-.298.547-.37Zm-6.143.044c.366-.127.81.024 1.003.364.215.35.129.85-.202 1.096-.19.15-.436.194-.672.173a.997.997 0 0 1-.6-.45c-.104-.272-.114-.6.057-.848.09-.16.258-.25.414-.335Zm3.209-.387c.148-.01.296.004.44.04.316.126.567.442.542.793.026.35-.22.674-.54.793a3.097 3.097 0 0 0-.141.045 7.5 7.5 0 0 1-.3 0 3.766 3.766 0 0 0-.14-.045.852.852 0 0 1-.534-.659c-.01-.118 0-.236.006-.353.1-.249.27-.476.53-.568.046-.014.09-.03.137-.046Z"/></g><defs><clipPath id="a"><path fill="#fff" d="M0 0h32v32H0z"/></clipPath></defs></svg>