<svg xmlns="http://www.w3.org/2000/svg" width="32" height="32" fill="none"><g clip-path="url(#a)"><mask id="b" width="32" height="32" x="0" y="0" maskUnits="userSpaceOnUse" style="mask-type:luminance"><path fill="#fff" d="M0 0h32v32H0V0Z"/></mask><g mask="url(#b)"><path fill="#EDEDED" d="M0 12.8c0-4.48 0-6.72.872-8.432A8 8 0 0 1 4.368.872C6.08 0 8.32 0 12.8 0h6.4c4.48 0 6.72 0 8.432.872a8 8 0 0 1 3.496 3.496C32 6.08 32 8.32 32 12.8v6.4c0 4.48 0 6.72-.872 8.432a8 8 0 0 1-3.496 3.496C25.92 32 23.68 32 19.2 32h-6.4c-4.48 0-6.72 0-8.432-.872a8 8 0 0 1-3.496-3.496C0 25.92 0 23.68 0 19.2v-6.4Z"/><mask id="c" width="24" height="24" x="4" y="4" maskUnits="userSpaceOnUse" style="mask-type:luminance"><path fill="#fff" d="M4 4h24v24H4V4Z"/></mask><g fill="#4B4B4B" mask="url(#c)"><path d="M25 9.25a.75.75 0 1 1 1.5 0v4.5a.75.75 0 0 1-.75.75h-4.5a.75.75 0 1 1 0-1.5H25V9.25Z"/><path d="M12.617 7.66a9.001 9.001 0 0 1 9.745 1.972l3.894 3.565a.75.75 0 0 1-1.012 1.106l-3.916-3.584-.024-.023a7.5 7.5 0 1 0-.156 10.759.75.75 0 1 1 1.03 1.09A9 9 0 1 1 12.617 7.66Z"/></g></g></g><defs><clipPath id="a"><path fill="#fff" d="M0 0h32v32H0z"/></clipPath></defs></svg>