<svg xmlns="http://www.w3.org/2000/svg" width="24" height="24" viewBox="0 0 24 24" fill="none"><g clip-path="url(#a)"><path fill="currentColor" d="M2.624 12.05c0 5.109 4.24 9.338 9.339 9.338 5.108 0 9.338-4.23 9.338-9.338 0-3.076-1.556-5.841-3.91-7.553-.402-.311-.906-.21-1.134.165-.23.384-.11.814.265 1.098a7.731 7.731 0 0 1 3.223 6.29 7.746 7.746 0 0 1-7.782 7.782A7.744 7.744 0 0 1 4.19 12.05a7.726 7.726 0 0 1 6.006-7.571v1.309c0 .65.448.824.952.467l2.92-2.05c.412-.285.422-.724 0-1.026l-2.911-2.051c-.513-.366-.961-.192-.961.467v1.29c-4.285.843-7.572 4.66-7.572 9.165Zm6.446 3.854c1.437 0 2.462-.87 2.462-2.105 0-.852-.567-1.557-1.373-1.703.65-.184 1.144-.861 1.144-1.63 0-1.099-.897-1.868-2.178-1.868-1.108 0-2.033.623-2.225 1.51-.025.1-.038.201-.037.303 0 .33.21.559.522.559.266 0 .43-.138.531-.43.192-.578.577-.88 1.181-.88.641 0 1.08.385 1.08.943 0 .586-.439 1.017-1.089 1.017h-.394c-.302 0-.503.21-.503.53 0 .303.21.531.503.531h.44c.769 0 1.254.43 1.254 1.072 0 .622-.55 1.098-1.31 1.098-.64 0-1.098-.32-1.3-.888-.109-.302-.274-.43-.521-.43-.311 0-.531.238-.531.558 0 .101.01.202.037.303.201.86 1.19 1.51 2.307 1.51Zm5.905 0c1.52 0 2.518-1.437 2.518-3.635 0-2.215-.998-3.67-2.518-3.67-1.53 0-2.518 1.446-2.518 3.67 0 2.198.998 3.635 2.518 3.635Zm0-1.108c-.806 0-1.328-.961-1.328-2.527 0-1.593.513-2.563 1.328-2.563.815 0 1.318.961 1.318 2.563 0 1.566-.513 2.527-1.318 2.527Z"/></g><defs><clipPath id="a"><path fill="#fff" d="M2.625.94h18.677v20.45H2.625z"/></clipPath></defs></svg>