<svg xmlns="http://www.w3.org/2000/svg" width="24" height="24" viewBox="0 0 24 24" fill="none"><g clip-path="url(#a)"><path fill="currentColor" d="M18.12 10.208a2.85 2.85 0 0 0-.753-1.948 2.34 2.34 0 0 0-1.704-.76c-1.046 0-1.9.588-2.263 1.532a1.5 1.5 0 0 1-2.8 0C10.236 8.088 9.383 7.5 8.337 7.5a2.34 2.34 0 0 0-1.704.76 2.85 2.85 0 0 0-.752 1.948c0 1.883 1.452 3.872 3.32 5.572a23.126 23.126 0 0 0 2.457 1.935c.122.084.237.159.342.228.106-.07.221-.145.343-.228A23.12 23.12 0 0 0 14.8 15.78c1.868-1.7 3.32-3.69 3.32-5.572Zm1.493.24c-.23 5.021-7.563 9.238-7.613 9.266l-.327-.197c-1.432-.89-7.085-4.67-7.286-9.069l-.006-.24c0-1.046.366-2.052 1.024-2.824l.135-.152A3.84 3.84 0 0 1 8.337 6l.308.01A3.844 3.844 0 0 1 12 8.494C12.59 6.96 14.008 6 15.663 6l.197.005a3.851 3.851 0 0 1 2.6 1.227c.742.79 1.16 1.86 1.16 2.976l-.007.24Z"/></g><defs><clipPath id="a"><path d="M0 0h24v24H0z"/></clipPath></defs></svg>