<svg xmlns="http://www.w3.org/2000/svg" width="24" height="24" viewBox="0 0 24 24"  fill="none"><path fill="currentColor" d="M18.056 10.833c.398 0 .722.324.722.723a7.222 7.222 0 0 1-6.5 7.184v2.927a.722.722 0 0 1-1.444 0v-2.926a7.222 7.222 0 0 1-6.501-7.185.723.723 0 0 1 1.445 0 5.777 5.777 0 1 0 11.555 0c0-.4.324-.723.723-.723Zm-6.5-9.389a4.333 4.333 0 0 1 4.333 4.333v5.779a4.333 4.333 0 0 1-8.666 0V5.777a4.333 4.333 0 0 1 4.333-4.333Zm0 1.445a2.889 2.889 0 0 0-2.889 2.888v5.779a2.889 2.889 0 1 0 5.777 0V5.777a2.889 2.889 0 0 0-2.888-2.888Z"/></svg>