<svg xmlns="http://www.w3.org/2000/svg" width="24" height="24" viewBox="0 0 24 24" fill="none"><g clip-path="url(#a)"><path fill="currentColor" d="M16.137 10.594a.75.75 0 0 1 .76.02l6 3.75a.75.75 0 0 1 0 1.272l-6 3.75a.75.75 0 0 1-1.147-.636v-7.5a.75.75 0 0 1 .387-.656ZM12.75 17.25a.75.75 0 0 1 0 1.5h-9a.75.75 0 0 1 0-1.5h9Zm4.5.146L21.085 15l-3.835-2.398v4.794Zm-4.5-6.146a.75.75 0 0 1 0 1.5h-9a.75.75 0 0 1 0-1.5h9Zm7.5-6a.75.75 0 0 1 0 1.5H3.75a.75.75 0 0 1 0-1.5h16.5Z"/></g><defs><clipPath id="a"><path fill="#fff" d="M0 0h24v24H0z"/></clipPath></defs></svg>