
<svg xmlns="http://www.w3.org/2000/svg" width="24" height="24" viewBox="0 0 24 24" fill="none"><path fill="currentColor" d="M11.498 19.015c.09-.302.433-.511.742-.425a.66.66 0 0 1 .456.405c.021.103.047.21.02.315a.631.631 0 0 1-.614.52c-.082.002-.162-.02-.241-.037a.778.778 0 0 1-.357-.363c-.031-.136-.057-.28-.006-.415ZM9.73 18.21c.247-.04.518.046.659.26.138.179.136.425.06.63a.821.821 0 0 1-.384.338c-.123.007-.248.02-.37-.005a.635.635 0 0 1-.428-.437c-.029-.173-.025-.365.084-.512a.716.716 0 0 1 .38-.274Zm4.542 0c.143-.01.295-.016.425.057.167.078.274.237.337.404.012.135.01.273-.03.404a.796.796 0 0 1-.376.356 1.322 1.322 0 0 1-.375.006.635.635 0 0 1-.447-.461c-.02-.153-.022-.32.063-.456a.705.705 0 0 1 .403-.31Zm2.003-1.005c.143-.008.293-.02.423.053l.047.014a.804.804 0 0 1 .3.395c.005.126.022.257-.027.377a.682.682 0 0 1-.4.386.658.658 0 0 1-.762-.332 4.947 4.947 0 0 0-.032-.099l-.03-.164a3.27 3.27 0 0 0 .029-.204.735.735 0 0 1 .452-.426Zm-8.488-.007c.261-.01.495.167.596.402.063.217.036.47-.124.64a.584.584 0 0 1-.506.204c-.252.004-.472-.18-.564-.407a1.168 1.168 0 0 1-.028-.298c.013-.046.024-.092.034-.137.1-.233.332-.415.592-.404Zm3.914-.94c.154-.136.373-.155.568-.12.213.062.39.237.439.456.081.293-.092.614-.364.736a.793.793 0 0 1-.5-.004.718.718 0 0 1-.371-.46c-.027-.225.046-.466.228-.608Zm-5.735-.644c.152-.007.315-.033.455.042.206.1.364.32.35.556.026.28-.186.541-.45.618-.199.047-.425.014-.579-.13-.26-.208-.295-.639-.07-.883a.825.825 0 0 1 .294-.203Zm12.008-.043c.231-.03.469.082.588.282.1.144.095.327.074.493-.083.366-.537.585-.872.41-.312-.133-.447-.531-.311-.835.108-.186.292-.357.521-.35Zm-8.946.577c-.024-.37.353-.685.713-.623a.644.644 0 0 1 .484.368c.065.13.049.28.042.42-.083.245-.298.445-.562.465-.35.04-.699-.272-.677-.63Zm5.41-.66c.205-.026.428.028.572.183.1.09.145.219.186.343a.674.674 0 0 1-.172.526c-.138.158-.356.218-.56.204-.234-.06-.445-.23-.506-.47-.094-.303.094-.63.377-.75l.103-.035ZM7.95 13.737c.105.043.216.084.302.163.15.141.227.355.195.56-.048.339-.395.58-.73.533-.218-.057-.422-.208-.49-.432a.613.613 0 0 1 .166-.653c.08-.084.191-.124.294-.17.087-.001.175-.002.263-.001Zm8.099-.003c.147-.037.306-.055.45.003a.654.654 0 0 1 .381.41c.022.126.01.255.003.381-.087.198-.252.37-.47.413-.295.078-.6-.11-.726-.376a1.075 1.075 0 0 1-.034-.372c.04-.09.073-.186.135-.264.068-.087.167-.141.26-.195Zm-11.157-.158c.364-.13.796.177.803.562a.62.62 0 0 1-.397.624c-.158.07-.337.045-.496-.008-.12-.078-.24-.171-.3-.304-.076-.147-.048-.319-.037-.477.084-.18.224-.349.427-.397Zm14.15-.033c.209.017.418.118.526.303.095.137.092.312.075.472-.024.178-.162.309-.297.413-.212.1-.475.104-.67-.036-.244-.16-.326-.49-.233-.76.114-.224.342-.392.6-.392Zm-8.24-.104c.297.006.535.256.597.536.009.201-.05.418-.207.553a.654.654 0 0 1-.624.14c-.241-.093-.437-.33-.43-.596-.008-.17.074-.327.178-.455.138-.108.304-.198.486-.178Zm2.213.035c.112-.046.233-.035.35-.03.12.05.243.104.328.205.115.11.142.274.17.424-.027.228-.143.46-.362.557-.133.072-.291.056-.435.043-.264-.065-.482-.323-.466-.6a.61.61 0 0 1 .415-.6Zm-6.309-1.999c.187-.143.445-.145.658-.063.126.082.245.187.297.333.057.12.042.255.04.383-.06.156-.15.309-.299.393-.25.147-.605.102-.795-.123-.231-.261-.192-.72.099-.923Zm2.8-.116a.61.61 0 0 1 .622.41c.059.137.042.29.007.43-.097.222-.31.41-.562.404a.608.608 0 0 1-.574-.3c-.11-.168-.108-.38-.047-.566.102-.21.31-.385.554-.378Zm4.646.069a.639.639 0 0 1 .743.109c.071.064.113.152.161.233.053.242.015.522-.19.682-.175.172-.444.183-.666.112-.206-.111-.382-.32-.37-.566-.022-.235.125-.455.322-.57Zm-9.692-.055a.86.86 0 0 1 .415.026c.14.077.256.19.33.33.05.163.057.34.002.502a.777.777 0 0 1-.334.33l-.07.03c-.21.032-.45.015-.605-.15-.21-.173-.237-.474-.157-.719.093-.16.234-.304.42-.349Zm7.544-.015c.389-.019.713.405.6.774a.634.634 0 0 1-.439.455.856.856 0 0 1-.429-.025.752.752 0 0 1-.311-.308 5.206 5.206 0 0 0-.05-.126 1.028 1.028 0 0 1 .033-.393c.11-.223.339-.397.596-.377Zm7.031.09c.144-.099.326-.104.493-.076a.64.64 0 0 1 .468.556.634.634 0 0 1-.366.625c-.133.07-.289.047-.433.042-.101-.048-.207-.095-.285-.178-.087-.09-.128-.21-.174-.322-.026-.247.076-.518.297-.647Zm-2.407-.028c.165-.09.364-.071.539-.02.134.078.262.184.32.333.061.124.046.265.043.398-.065.178-.182.348-.362.423-.135.068-.29.047-.435.04-.092-.049-.191-.089-.266-.162-.074-.077-.118-.175-.166-.268-.008-.121-.022-.245.006-.364a.644.644 0 0 1 .32-.38Zm-3.87-1.944c.166-.2.456-.241.693-.166a.687.687 0 0 1 .334.288c.073.164.068.346.04.518-.076.136-.17.272-.315.34a.63.63 0 0 1-.745-.13c-.073-.077-.114-.176-.16-.271-.02-.203 0-.428.153-.579Zm-2.19-.185c.132-.014.266-.014.4 0a.72.72 0 0 1 .397.399c.029.122.051.253.007.375-.049.19-.2.332-.368.421-.167.047-.355.06-.512-.024a.624.624 0 0 1-.313-.782c.059-.184.219-.31.388-.389Zm8.033-.096a.629.629 0 0 1 .819.09c.178.174.199.45.123.677-.11.206-.319.381-.564.371-.281.026-.543-.183-.625-.445-.025-.119-.013-.24-.006-.36a.8.8 0 0 1 .253-.333ZM4.647 9.15c.149-.11.344-.112.518-.082a.62.62 0 0 1 .429.415.627.627 0 0 1-.981.69c-.13-.088-.192-.237-.245-.378-.029-.245.065-.51.28-.645Zm2.927-.154a.614.614 0 0 1 .637.177.685.685 0 0 1 .175.49c-.041.21-.165.41-.364.502-.122.067-.264.066-.399.06-.162-.061-.33-.147-.413-.308-.11-.173-.106-.391-.039-.58.093-.152.225-.295.403-.34Zm8.18.131c.153-.197.422-.265.661-.217a.768.768 0 0 1 .436.42c.009.147.032.304-.03.444-.095.218-.323.388-.568.368-.28.03-.542-.183-.617-.445a.652.652 0 0 1 .118-.57Zm-1.348-1.981a.632.632 0 0 1 .593.39.635.635 0 0 1-.23.76c-.182.13-.427.111-.63.05-.2-.115-.359-.325-.343-.565-.026-.336.28-.636.61-.635Zm-5.05-.02c.128-.03.26-.01.385.022.174.092.327.242.371.439.043.118.012.244-.012.362a.71.71 0 0 1-.247.31c-.1.074-.227.093-.346.114a3.614 3.614 0 0 0-.227-.038c-.226-.103-.414-.329-.407-.586a.627.627 0 0 1 .483-.624Zm-3.847.218a.634.634 0 0 1 .758-.175.625.625 0 0 1 .342.723.621.621 0 0 1-.445.452c-.128.024-.26.01-.388-.008-.155-.086-.307-.203-.363-.379-.046-.107-.04-.225-.038-.34.039-.093.07-.192.134-.273Zm12.398-.337c.346-.033.666.301.634.644a.62.62 0 0 1-.533.596c-.078.006-.156.001-.234 0-.213-.073-.414-.234-.464-.463-.022-.158-.026-.332.063-.472a.584.584 0 0 1 .534-.305Zm-6.068-.474c.163-.019.342-.024.484.072.21.116.305.363.313.593-.038.113-.062.238-.144.33a.908.908 0 0 1-.252.202 1.03 1.03 0 0 1-.4.03.731.731 0 0 1-.437-.394 1.074 1.074 0 0 1-.027-.371c.072-.213.236-.41.463-.462Zm-4.12-1.064c.037.011.074.021.112.03.25.083.446.325.43.594.027.333-.276.636-.606.634a.627.627 0 0 1-.628-.492c-.023-.16-.014-.331.08-.468.092-.17.275-.256.455-.3.052 0 .104 0 .156.002Zm8.407-.034a.661.661 0 0 1 .654.301c.108.162.088.366.06.549-.085.165-.214.318-.397.373a.63.63 0 0 1-.77-.325c-.073-.135-.054-.292-.05-.438a.725.725 0 0 1 .398-.426c.035-.01.07-.022.105-.034Zm-6.69-.975a.641.641 0 0 1 .753.273.637.637 0 0 1-.152.822.707.707 0 0 1-.504.13.747.747 0 0 1-.448-.339c-.08-.203-.087-.45.041-.635.068-.12.193-.188.31-.251Zm4.608-.033c.234-.022.49.065.624.267a.629.629 0 0 1-.705.962.69.69 0 0 1-.385-.335 2.12 2.12 0 0 1-.012-.04c-.05-.19-.053-.412.068-.576.09-.147.252-.224.41-.278Zm-2.2-.257c.11-.007.221.002.33.03.237.094.425.331.406.595.02.262-.165.505-.405.594-.036.01-.071.022-.106.034h-.225a2.819 2.819 0 0 0-.105-.034.639.639 0 0 1-.4-.494c-.008-.088 0-.177.004-.266.075-.186.203-.356.398-.425.034-.01.068-.022.102-.034Z"/></svg>