<svg xmlns="http://www.w3.org/2000/svg" width="24" height="24" viewBox="0 0 24 24" fill="none"><g clip-path="url(#a)"><path fill="currentColor" d="M2.624 12.051c0 5.109 4.24 9.339 9.339 9.339 5.108 0 9.338-4.23 9.338-9.339 0-4.504-3.287-8.322-7.571-9.164v-1.3c0-.65-.449-.824-.943-.467L9.867 3.16c-.422.293-.431.733 0 1.035l2.91 2.05c.504.367.953.193.953-.466v-1.3a7.726 7.726 0 0 1 6.005 7.571 7.744 7.744 0 0 1-7.772 7.782 7.746 7.746 0 0 1-7.782-7.782 7.73 7.73 0 0 1 3.222-6.29c.376-.283.495-.714.266-1.098-.229-.376-.733-.476-1.135-.165-2.353 1.712-3.91 4.477-3.91 7.553Zm6.665 3.754c.357 0 .586-.248.586-.632V9.396c0-.467-.238-.714-.65-.714-.256 0-.44.082-.76.302l-1.263.852c-.21.155-.311.32-.311.53 0 .303.238.56.54.56.174 0 .265-.038.44-.175l.86-.632v5.054c0 .376.22.632.558.632Zm4.651.11c1.52 0 2.527-.98 2.527-2.454 0-1.346-.906-2.307-2.215-2.307-.54 0-1.127.247-1.401.66l.155-1.978h2.747c.265 0 .494-.22.494-.531a.491.491 0 0 0-.494-.513h-2.93c-.476 0-.741.275-.787.76l-.192 2.636c-.046.458.192.678.595.678.302 0 .43-.055.695-.256.348-.32.632-.45.99-.45.713 0 1.19.523 1.19 1.32 0 .805-.559 1.391-1.319 1.391-.54 0-1.007-.311-1.245-.787-.137-.239-.302-.367-.531-.367-.302 0-.513.22-.513.531 0 .129.028.248.074.367.247.659 1.053 1.3 2.16 1.3Z"/></g><defs><clipPath id="a"><path fill="#fff" d="M2.625.938h18.677V21.39H2.625z"/></clipPath></defs></svg>