<svg xmlns="http://www.w3.org/2000/svg" width="24" height="24" viewBox="0 0 24 24" fill="none"><g clip-path="url(#a)"><path fill="currentColor" d="M15.75 13.5c1.398 0 2.569.957 2.902 2.25h1.598a.75.75 0 0 1 0 1.5h-1.598a2.998 2.998 0 0 1-2.902 2.25 2.998 2.998 0 0 1-2.902-2.25H3.75a.75.75 0 0 1 0-1.5h9.098a2.998 2.998 0 0 1 2.902-2.25Zm0 1.5a1.5 1.5 0 1 0 0 3 1.5 1.5 0 0 0 0-3Zm-6-10.5c1.398 0 2.569.956 2.902 2.25h7.598a.75.75 0 0 1 0 1.5h-7.598a2.998 2.998 0 0 1-5.804 0H3.75a.75.75 0 0 1 0-1.5h3.098A2.998 2.998 0 0 1 9.75 4.5Zm0 1.5a1.5 1.5 0 1 0 0 3 1.5 1.5 0 0 0 0-3Z"/></g><defs><clipPath id="a"><path fill="#fff" d="M0 0h24v24H0z"/></clipPath></defs></svg>