<svg xmlns="http://www.w3.org/2000/svg" width="24" height="24" viewBox="0 0 24 24" fill="none">
  <path fill="currentColor" fill-rule="evenodd" d="M10.5 3a.75.75 0 0 0-.75.75V5h4.5V3.75A.75.75 0 0 0 13.5 3h-3ZM16 5V3.75A2.25 2.25 0 0 0 13.75 1.5h-3.5A2.25 2.25 0 0 0 8 3.75V5H3.75a.75.75 0 0 0 0 1.5h1.065l.788 13.095A2.25 2.25 0 0 0 7.845 21.5h8.31a2.25 2.25 0 0 0 2.242-2.095L19.185 6.5h1.065a.75.75 0 0 0 0-1.5H16ZM6.32 6.5l.776 12.905a.75.75 0 0 0 .747.595h8.31a.75.75 0 0 0 .748-.695L17.68 6.5H6.32Z" clip-rule="evenodd"/>
  <path fill="currentColor" d="M10.5 9.25a.75.75 0 0 1 .75.75v6a.75.75 0 0 1-1.5 0v-6a.75.75 0 0 1 .75-.75ZM14.25 10a.75.75 0 0 0-1.5 0v6a.75.75 0 0 0 1.5 0v-6Z"/>
</svg>
