<?xml version="1.0" encoding="UTF-8" standalone="no"?>
<!DOCTYPE svg PUBLIC "-//W3C//DTD SVG 1.1//EN"
 "http://www.w3.org/Graphics/SVG/1.1/DTD/svg11.dtd">
<!-- Generated by graphviz version 2.42.4 (0)
 -->
<!-- Title: G Pages: 1 -->
<svg width="450pt" height="297pt"
 viewBox="0.00 0.00 450.00 297.00" xmlns="http://www.w3.org/2000/svg" xmlns:xlink="http://www.w3.org/1999/xlink">
<g id="graph0" class="graph" transform="scale(1 1) rotate(0) translate(4 293)">
<title>G</title><style>.edge>path:hover{stroke-width:8}</style>
<polygon fill="white" stroke="transparent" points="-4,4 -4,-293 446,-293 446,4 -4,4"/>
<!-- aiofiles -->
<g id="node1" class="node">
<title>aiofiles</title><style>.edge>path:hover{stroke-width:8}</style>
<polygon fill="#c08c40" stroke="black" points="54,-289 51,-293 30,-293 27,-289 0,-289 0,-253 54,-253 54,-289"/>
<text text-anchor="middle" x="27" y="-268.5" font-family="Helvetica,sans-Serif" font-size="10.00" fill="#000000">aiofiles</text>
</g>
<!-- backend -->
<g id="node3" class="node">
<title>backend</title><style>.edge>path:hover{stroke-width:8}</style>
<polygon fill="#3ff910" stroke="black" points="388.5,-36 385.5,-40 364.5,-40 361.5,-36 331.5,-36 331.5,0 388.5,0 388.5,-36"/>
<text text-anchor="middle" x="360" y="-15.5" font-family="Helvetica,sans-Serif" font-size="10.00" fill="#000000">backend</text>
</g>
<!-- aiofiles&#45;&gt;backend -->
<g id="edge1" class="edge">
<title>aiofiles&#45;&gt;backend</title><style>.edge>path:hover{stroke-width:8}</style>
<path fill="none" stroke="black" d="M54.08,-256.19C75.5,-244.03 104.73,-224.45 123,-200"/>
<path fill="none" stroke="black" d="M123,-198C129.78,-188.92 132.84,-187.66 142,-181 179.86,-153.48 200.13,-161.32 233,-128"/>
<path fill="none" stroke="black" d="M233,-126C240.96,-117.93 242.2,-114.69 252,-109 295.76,-83.6 344.47,-121.15 360,-73"/>
<path fill="none" stroke="black" d="M360,-72C362.62,-63.87 363.34,-54.67 363.2,-46.24"/>
<polygon fill="#c08c40" stroke="black" points="366.68,-45.91 362.62,-36.12 359.69,-46.3 366.68,-45.91"/>
</g>
<!-- aiohttp -->
<g id="node2" class="node">
<title>aiohttp</title><style>.edge>path:hover{stroke-width:8}</style>
<polygon fill="#b5d926" stroke="black" points="126,-289 123,-293 102,-293 99,-289 72,-289 72,-253 126,-253 126,-289"/>
<text text-anchor="middle" x="99" y="-268.5" font-family="Helvetica,sans-Serif" font-size="10.00" fill="#000000">aiohttp</text>
</g>
<!-- aiohttp&#45;&gt;backend -->
<g id="edge2" class="edge">
<title>aiohttp&#45;&gt;backend</title><style>.edge>path:hover{stroke-width:8}</style>
<path fill="none" stroke="black" d="M101.81,-252.77C104.96,-237.67 111.23,-215.75 123,-200"/>
</g>
<!-- dbus_next -->
<g id="node4" class="node">
<title>dbus_next</title><style>.edge>path:hover{stroke-width:8}</style>
<polygon fill="blue" stroke="black" points="211.5,-289 208.5,-293 187.5,-293 184.5,-289 144.5,-289 144.5,-253 211.5,-253 211.5,-289"/>
<text text-anchor="middle" x="178" y="-268.5" font-family="Helvetica,sans-Serif" font-size="10.00" fill="white">dbus_next</text>
</g>
<!-- dbus_next&#45;&gt;backend -->
<g id="edge3" class="edge">
<title>dbus_next&#45;&gt;backend</title><style>.edge>path:hover{stroke-width:8}</style>
<path fill="none" stroke="black" d="M149.58,-252.92C129.83,-238.86 109.31,-218.32 123,-200"/>
</g>
<!-- fastapi -->
<g id="node5" class="node">
<title>fastapi</title><style>.edge>path:hover{stroke-width:8}</style>
<polygon fill="#47c2c2" stroke="black" points="205,-217 202,-221 181,-221 178,-217 151,-217 151,-181 205,-181 205,-217"/>
<text text-anchor="middle" x="178" y="-196.5" font-family="Helvetica,sans-Serif" font-size="10.00" fill="#000000">fastapi</text>
</g>
<!-- fastapi&#45;&gt;backend -->
<g id="edge4" class="edge">
<title>fastapi&#45;&gt;backend</title><style>.edge>path:hover{stroke-width:8}</style>
<path fill="none" stroke="black" d="M190.01,-180.83C200.6,-166.16 216.84,-144.83 233,-128"/>
</g>
<!-- PIL -->
<g id="node6" class="node">
<title>PIL</title><style>.edge>path:hover{stroke-width:8}</style>
<polygon fill="#cc3333" stroke="black" points="284,-289 281,-293 260,-293 257,-289 230,-289 230,-253 284,-253 284,-289"/>
<text text-anchor="middle" x="257" y="-268.5" font-family="Helvetica,sans-Serif" font-size="10.00" fill="#ffffff">PIL</text>
</g>
<!-- PIL&#45;&gt;backend -->
<g id="edge5" class="edge">
<title>PIL&#45;&gt;backend</title><style>.edge>path:hover{stroke-width:8}</style>
<path fill="none" stroke="black" d="M246.2,-252.92C228.95,-223.24 200.27,-162.08 233,-128"/>
</g>
<!-- pytest -->
<g id="node7" class="node">
<title>pytest</title><style>.edge>path:hover{stroke-width:8}</style>
<polygon fill="#106df9" stroke="black" points="315,-217 312,-221 291,-221 288,-217 261,-217 261,-181 315,-181 315,-217"/>
<text text-anchor="middle" x="288" y="-196.5" font-family="Helvetica,sans-Serif" font-size="10.00" fill="#ffffff">pytest</text>
</g>
<!-- pytest&#45;&gt;backend -->
<g id="edge6" class="edge">
<title>pytest&#45;&gt;backend</title><style>.edge>path:hover{stroke-width:8}</style>
<path fill="none" stroke="black" d="M260.91,-181.69C239.77,-167.01 216.51,-145.17 233,-128"/>
</g>
<!-- slowapi -->
<g id="node8" class="node">
<title>slowapi</title><style>.edge>path:hover{stroke-width:8}</style>
<polygon fill="#6753b6" stroke="black" points="315,-145 312,-149 291,-149 288,-145 261,-145 261,-109 315,-109 315,-145"/>
<text text-anchor="middle" x="288" y="-124.5" font-family="Helvetica,sans-Serif" font-size="10.00" fill="#ffffff">slowapi</text>
</g>
<!-- slowapi&#45;&gt;backend -->
<g id="edge7" class="edge">
<title>slowapi&#45;&gt;backend</title><style>.edge>path:hover{stroke-width:8}</style>
<path fill="none" stroke="black" d="M315.04,-110.83C334.09,-99.35 356.76,-83.78 360,-73"/>
</g>
<!-- uvicorn -->
<g id="node9" class="node">
<title>uvicorn</title><style>.edge>path:hover{stroke-width:8}</style>
<polygon fill="#a640c0" stroke="black" points="387,-145 384,-149 363,-149 360,-145 333,-145 333,-109 387,-109 387,-145"/>
<text text-anchor="middle" x="360" y="-124.5" font-family="Helvetica,sans-Serif" font-size="10.00" fill="#ffffff">uvicorn</text>
</g>
<!-- uvicorn&#45;&gt;backend -->
<g id="edge8" class="edge">
<title>uvicorn&#45;&gt;backend</title><style>.edge>path:hover{stroke-width:8}</style>
<path fill="none" stroke="black" d="M357.54,-108.93C356.61,-98.36 356.51,-84.63 360,-73"/>
</g>
<!-- yaml -->
<g id="node10" class="node">
<title>yaml</title><style>.edge>path:hover{stroke-width:8}</style>
<polygon fill="#c24791" stroke="black" points="442,-217 439,-221 418,-221 415,-217 388,-217 388,-181 442,-181 442,-217"/>
<text text-anchor="middle" x="415" y="-196.5" font-family="Helvetica,sans-Serif" font-size="10.00" fill="#ffffff">yaml</text>
</g>
<!-- yaml&#45;&gt;backend -->
<g id="edge9" class="edge">
<title>yaml&#45;&gt;backend</title><style>.edge>path:hover{stroke-width:8}</style>
<path fill="none" stroke="black" d="M414.22,-180.94C412.74,-162.26 408.45,-131.9 396,-109 385.19,-89.12 353.49,-94.67 360,-73"/>
</g>
</g>
</svg>
