<?xml version="1.0" encoding="UTF-8" standalone="no"?>
<!DOCTYPE svg PUBLIC "-//W3C//DTD SVG 1.1//EN"
 "http://www.w3.org/Graphics/SVG/1.1/DTD/svg11.dtd">
<!-- Generated by graphviz version 2.42.4 (0)
 -->
<!-- Title: G Pages: 1 -->
<svg width="1424pt" height="576pt"
 viewBox="0.00 0.00 1423.83 576.24" xmlns="http://www.w3.org/2000/svg" xmlns:xlink="http://www.w3.org/1999/xlink">
<g id="graph0" class="graph" transform="scale(1 1) rotate(0) translate(4 572.24)">
<title>G</title><style>.edge>path:hover{stroke-width:8}</style>
<polygon fill="white" stroke="transparent" points="-4,4 -4,-572.24 1419.83,-572.24 1419.83,4 -4,4"/>
<!-- backend -->
<g id="node1" class="node">
<title>backend</title><style>.edge>path:hover{stroke-width:8}</style>
<ellipse fill="#b65353" stroke="black" cx="516.33" cy="-127" rx="33.61" ry="18"/>
<text text-anchor="middle" x="516.33" y="-124.5" font-family="Helvetica,sans-Serif" font-size="10.00" fill="#ffffff">backend</text>
</g>
<!-- main_py -->
<g id="node14" class="node">
<title>main_py</title><style>.edge>path:hover{stroke-width:8}</style>
<ellipse fill="#407740" stroke="black" cx="1040.33" cy="-18" rx="32.93" ry="18"/>
<text text-anchor="middle" x="1040.33" y="-15.5" font-family="Helvetica,sans-Serif" font-size="10.00" fill="#ffffff">main.py</text>
</g>
<!-- backend&#45;&gt;main_py -->
<g id="edge1" class="edge">
<title>backend&#45;&gt;main_py</title><style>.edge>path:hover{stroke-width:8}</style>
<path fill="none" stroke="black" d="M541.39,-114.63C547.17,-112.42 553.38,-110.36 559.33,-109 611.56,-97.01 1011.99,-118.49 1040.33,-73"/>
<path fill="none" stroke="black" d="M1040.33,-72C1045.08,-64.37 1046.21,-54.83 1045.78,-45.97"/>
<polygon fill="#b65353" stroke="black" points="1049.26,-45.58 1044.69,-36.02 1042.3,-46.34 1049.26,-45.58"/>
</g>
<!-- fastapi -->
<g id="node2" class="node">
<title>fastapi</title><style>.edge>path:hover{stroke-width:8}</style>
<polygon fill="blue" stroke="black" points="622.33,-145 568.33,-145 568.33,-109 622.33,-109 622.33,-145"/>
<text text-anchor="middle" x="595.33" y="-124.5" font-family="Helvetica,sans-Serif" font-size="10.00" fill="white">fastapi</text>
</g>
<!-- fastapi&#45;&gt;main_py -->
<g id="edge2" class="edge">
<title>fastapi&#45;&gt;main_py</title><style>.edge>path:hover{stroke-width:8}</style>
<path fill="none" stroke="black" d="M622.57,-125.15C715.88,-121.91 1018.08,-108.7 1040.33,-73"/>
</g>
<!-- fastapi_applications -->
<g id="node3" class="node">
<title>fastapi_applications</title><style>.edge>path:hover{stroke-width:8}</style>
<polygon fill="blue" stroke="black" points="699.33,-227.99 623.33,-227.99 623.33,-191.99 699.33,-191.99 699.33,-227.99"/>
<text text-anchor="middle" x="661.33" y="-212.99" font-family="Helvetica,sans-Serif" font-size="10.00" fill="white">fastapi.</text>
<text text-anchor="middle" x="661.33" y="-201.99" font-family="Helvetica,sans-Serif" font-size="10.00" fill="white">applications</text>
</g>
<!-- fastapi_applications&#45;&gt;fastapi -->
<g id="edge3" class="edge">
<title>fastapi_applications&#45;&gt;fastapi</title><style>.edge>path:hover{stroke-width:8}</style>
<path fill="none" stroke="black" d="M647.33,-191.82C638.14,-180.54 625.97,-165.61 615.72,-153.02"/>
<polygon fill="blue" stroke="black" points="618.33,-150.69 609.3,-145.15 612.91,-155.11 618.33,-150.69"/>
</g>
<!-- fastapi_background -->
<g id="node4" class="node">
<title>fastapi_background</title><style>.edge>path:hover{stroke-width:8}</style>
<ellipse fill="#b3b34c" stroke="black" cx="52.33" cy="-209.99" rx="52.15" ry="21.43"/>
<text text-anchor="middle" x="52.33" y="-212.99" font-family="Helvetica,sans-Serif" font-size="10.00" fill="#000000">fastapi.</text>
<text text-anchor="middle" x="52.33" y="-201.99" font-family="Helvetica,sans-Serif" font-size="10.00" fill="#000000">background</text>
</g>
<!-- fastapi_background&#45;&gt;fastapi -->
<g id="edge4" class="edge">
<title>fastapi_background&#45;&gt;fastapi</title><style>.edge>path:hover{stroke-width:8}</style>
<path fill="none" stroke="black" d="M84.18,-193.06C94.8,-188.41 106.84,-183.83 118.33,-181 306.11,-134.79 367.32,-193.78 558.41,-144.63"/>
<polygon fill="#b3b34c" stroke="black" points="559.42,-147.98 568.2,-142.05 557.63,-141.22 559.42,-147.98"/>
</g>
<!-- fastapi_datastructures -->
<g id="node5" class="node">
<title>fastapi_datastructures</title><style>.edge>path:hover{stroke-width:8}</style>
<polygon fill="blue" stroke="black" points="613.83,-408.18 526.83,-408.18 526.83,-372.18 613.83,-372.18 613.83,-408.18"/>
<text text-anchor="middle" x="570.33" y="-393.18" font-family="Helvetica,sans-Serif" font-size="10.00" fill="white">fastapi.</text>
<text text-anchor="middle" x="570.33" y="-382.18" font-family="Helvetica,sans-Serif" font-size="10.00" fill="white">datastructures</text>
</g>
<!-- fastapi_datastructures&#45;&gt;fastapi -->
<g id="edge5" class="edge">
<title>fastapi_datastructures&#45;&gt;fastapi</title><style>.edge>path:hover{stroke-width:8}</style>
<path fill="none" stroke="black" d="M528.52,-372.11C492.18,-357.06 444.92,-336.94 442.33,-332.97 428.24,-311.39 439.89,-300.64 442.33,-274.98 446.34,-232.64 432.75,-213.37 460.33,-181 488.79,-147.59 512.91,-161.02 558.84,-144.75"/>
<polygon fill="blue" stroke="black" points="560.26,-147.96 568.32,-141.08 557.73,-141.43 560.26,-147.96"/>
</g>
<!-- fastapi_datastructures&#45;&gt;fastapi_applications -->
<g id="edge6" class="edge">
<title>fastapi_datastructures&#45;&gt;fastapi_applications</title><style>.edge>path:hover{stroke-width:8}</style>
<path fill="none" stroke="black" d="M562.95,-372.08C554.05,-348.61 542.26,-305.83 559.33,-274.98 562.97,-268.39 594.87,-248.92 622.04,-233.17"/>
<polygon fill="blue" stroke="black" points="624.11,-236.02 631.03,-228 620.61,-229.96 624.11,-236.02"/>
</g>
<!-- fastapi_routing -->
<g id="node12" class="node">
<title>fastapi_routing</title><style>.edge>path:hover{stroke-width:8}</style>
<polygon fill="blue" stroke="black" points="622.33,-321.97 568.33,-321.97 568.33,-285.97 622.33,-285.97 622.33,-321.97"/>
<text text-anchor="middle" x="595.33" y="-306.97" font-family="Helvetica,sans-Serif" font-size="10.00" fill="white">fastapi.</text>
<text text-anchor="middle" x="595.33" y="-295.97" font-family="Helvetica,sans-Serif" font-size="10.00" fill="white">routing</text>
</g>
<!-- fastapi_datastructures&#45;&gt;fastapi_routing -->
<g id="edge7" class="edge">
<title>fastapi_datastructures&#45;&gt;fastapi_routing</title><style>.edge>path:hover{stroke-width:8}</style>
<path fill="none" stroke="black" d="M575.39,-372.14C578.81,-360.61 583.4,-345.14 587.32,-331.96"/>
<polygon fill="blue" stroke="black" points="590.78,-332.57 590.27,-321.99 584.07,-330.58 590.78,-332.57"/>
</g>
<!-- fastapi_exceptions -->
<g id="node6" class="node">
<title>fastapi_exceptions</title><style>.edge>path:hover{stroke-width:8}</style>
<ellipse fill="#c4c431" stroke="black" cx="719.33" cy="-390.18" rx="49.49" ry="21.43"/>
<text text-anchor="middle" x="719.33" y="-393.18" font-family="Helvetica,sans-Serif" font-size="10.00" fill="#000000">fastapi.</text>
<text text-anchor="middle" x="719.33" y="-382.18" font-family="Helvetica,sans-Serif" font-size="10.00" fill="#000000">exceptions</text>
</g>
<!-- fastapi_exceptions&#45;&gt;fastapi -->
<g id="edge8" class="edge">
<title>fastapi_exceptions&#45;&gt;fastapi</title><style>.edge>path:hover{stroke-width:8}</style>
<path fill="none" stroke="black" d="M699.69,-370.62C683.99,-354.67 662.64,-330.3 650.33,-304.97"/>
<path fill="none" stroke="black" d="M650.33,-302.97C645.12,-292.26 593.61,-222.77 595.33,-210.99"/>
</g>
<!-- fastapi_exceptions&#45;&gt;fastapi_applications -->
<g id="edge9" class="edge">
<title>fastapi_exceptions&#45;&gt;fastapi_applications</title><style>.edge>path:hover{stroke-width:8}</style>
<path fill="none" stroke="black" d="M650.33,-302.97C640.43,-282.62 644.74,-256.85 650.62,-237.77"/>
<polygon fill="#c4c431" stroke="black" points="653.97,-238.8 653.88,-228.2 647.34,-236.54 653.97,-238.8"/>
</g>
<!-- fastapi_exceptions&#45;&gt;fastapi_routing -->
<g id="edge10" class="edge">
<title>fastapi_exceptions&#45;&gt;fastapi_routing</title><style>.edge>path:hover{stroke-width:8}</style>
<path fill="none" stroke="black" d="M693.88,-371.98C677.45,-360.87 655.61,-346.08 636.33,-332.97 633.92,-331.33 631.44,-329.64 628.94,-327.94"/>
<polygon fill="#c4c431" stroke="black" points="630.7,-324.9 620.47,-322.16 626.76,-330.69 630.7,-324.9"/>
</g>
<!-- fastapi_middleware -->
<g id="node7" class="node">
<title>fastapi_middleware</title><style>.edge>path:hover{stroke-width:8}</style>
<ellipse fill="#b8b83d" stroke="black" cx="910.33" cy="-303.97" rx="52.15" ry="21.43"/>
<text text-anchor="middle" x="910.33" y="-306.97" font-family="Helvetica,sans-Serif" font-size="10.00" fill="#000000">fastapi.</text>
<text text-anchor="middle" x="910.33" y="-295.97" font-family="Helvetica,sans-Serif" font-size="10.00" fill="#000000">middleware</text>
</g>
<!-- fastapi_middleware&#45;&gt;fastapi_applications -->
<g id="edge11" class="edge">
<title>fastapi_middleware&#45;&gt;fastapi_applications</title><style>.edge>path:hover{stroke-width:8}</style>
<path fill="none" stroke="black" d="M875.9,-287.88C865.78,-283.58 854.66,-278.98 844.33,-274.98 798.79,-257.39 746.11,-239.19 709,-226.72"/>
<polygon fill="#b8b83d" stroke="black" points="710.03,-223.37 699.44,-223.52 707.81,-230.01 710.03,-223.37"/>
</g>
<!-- fastapi_middleware&#45;&gt;main_py -->
<g id="edge12" class="edge">
<title>fastapi_middleware&#45;&gt;main_py</title><style>.edge>path:hover{stroke-width:8}</style>
<path fill="none" stroke="black" d="M903.1,-282.72C897.06,-261.76 892.07,-229.54 910.33,-210.99"/>
</g>
<!-- fastapi_middleware_cors -->
<g id="node8" class="node">
<title>fastapi_middleware_cors</title><style>.edge>path:hover{stroke-width:8}</style>
<ellipse fill="#a4a446" stroke="black" cx="1010.33" cy="-209.99" rx="54.39" ry="28.98"/>
<text text-anchor="middle" x="1010.33" y="-218.49" font-family="Helvetica,sans-Serif" font-size="10.00" fill="#000000">fastapi.</text>
<text text-anchor="middle" x="1010.33" y="-207.49" font-family="Helvetica,sans-Serif" font-size="10.00" fill="#000000">middleware.</text>
<text text-anchor="middle" x="1010.33" y="-196.49" font-family="Helvetica,sans-Serif" font-size="10.00" fill="#000000">cors</text>
</g>
<!-- fastapi_middleware_cors&#45;&gt;main_py -->
<g id="edge13" class="edge">
<title>fastapi_middleware_cors&#45;&gt;main_py</title><style>.edge>path:hover{stroke-width:8}</style>
<path fill="none" stroke="black" d="M1003.69,-180.96C1001.34,-164.48 1001.2,-143.84 1010.33,-128"/>
</g>
<!-- fastapi_param_functions -->
<g id="node9" class="node">
<title>fastapi_param_functions</title><style>.edge>path:hover{stroke-width:8}</style>
<polygon fill="blue" stroke="black" points="567.33,-227.99 469.33,-227.99 469.33,-191.99 567.33,-191.99 567.33,-227.99"/>
<text text-anchor="middle" x="518.33" y="-212.99" font-family="Helvetica,sans-Serif" font-size="10.00" fill="white">fastapi.</text>
<text text-anchor="middle" x="518.33" y="-201.99" font-family="Helvetica,sans-Serif" font-size="10.00" fill="white">param_functions</text>
</g>
<!-- fastapi_param_functions&#45;&gt;fastapi -->
<g id="edge14" class="edge">
<title>fastapi_param_functions&#45;&gt;fastapi</title><style>.edge>path:hover{stroke-width:8}</style>
<path fill="none" stroke="black" d="M534.66,-191.82C545.48,-180.43 559.84,-165.32 571.88,-152.66"/>
<polygon fill="blue" stroke="black" points="574.67,-154.81 579.02,-145.15 569.59,-149.99 574.67,-154.81"/>
</g>
<!-- fastapi_requests -->
<g id="node10" class="node">
<title>fastapi_requests</title><style>.edge>path:hover{stroke-width:8}</style>
<ellipse fill="#acac49" stroke="black" cx="344.33" cy="-390.18" rx="41.94" ry="21.43"/>
<text text-anchor="middle" x="344.33" y="-393.18" font-family="Helvetica,sans-Serif" font-size="10.00" fill="#000000">fastapi.</text>
<text text-anchor="middle" x="344.33" y="-382.18" font-family="Helvetica,sans-Serif" font-size="10.00" fill="#000000">requests</text>
</g>
<!-- fastapi_requests&#45;&gt;fastapi -->
<g id="edge15" class="edge">
<title>fastapi_requests&#45;&gt;fastapi</title><style>.edge>path:hover{stroke-width:8}</style>
<path fill="none" stroke="black" d="M370.07,-373.07C393.97,-357.4 429.74,-332.05 456.33,-304.97"/>
<path fill="none" stroke="black" d="M456.33,-302.97C508.22,-250.11 584.64,-284.3 595.33,-210.99"/>
<path fill="none" stroke="black" d="M595.33,-208.99C597.91,-191.24 597.92,-171.07 597.28,-155.3"/>
<polygon fill="#acac49" stroke="black" points="600.77,-154.97 596.75,-145.17 593.78,-155.34 600.77,-154.97"/>
</g>
<!-- fastapi_responses -->
<g id="node11" class="node">
<title>fastapi_responses</title><style>.edge>path:hover{stroke-width:8}</style>
<ellipse fill="#b3b34c" stroke="black" cx="308.33" cy="-209.99" rx="46.84" ry="21.43"/>
<text text-anchor="middle" x="308.33" y="-212.99" font-family="Helvetica,sans-Serif" font-size="10.00" fill="#000000">fastapi.</text>
<text text-anchor="middle" x="308.33" y="-201.99" font-family="Helvetica,sans-Serif" font-size="10.00" fill="#000000">responses</text>
</g>
<!-- fastapi_responses&#45;&gt;fastapi -->
<g id="edge16" class="edge">
<title>fastapi_responses&#45;&gt;fastapi</title><style>.edge>path:hover{stroke-width:8}</style>
<path fill="none" stroke="black" d="M346.04,-197.47C363.68,-192.22 385.01,-186.05 404.33,-181 469.67,-163.9 490.65,-167.82 558.21,-145.01"/>
<polygon fill="#b3b34c" stroke="black" points="559.75,-148.18 568.06,-141.61 557.47,-141.57 559.75,-148.18"/>
</g>
<!-- fastapi_routing&#45;&gt;fastapi -->
<g id="edge17" class="edge">
<title>fastapi_routing&#45;&gt;fastapi</title><style>.edge>path:hover{stroke-width:8}</style>
<path fill="none" stroke="black" d="M593.86,-285.91C592.61,-267.37 591.55,-236.91 595.33,-210.99"/>
</g>
<!-- fastapi_routing&#45;&gt;fastapi_applications -->
<g id="edge18" class="edge">
<title>fastapi_routing&#45;&gt;fastapi_applications</title><style>.edge>path:hover{stroke-width:8}</style>
<path fill="none" stroke="black" d="M607.74,-285.67C617.7,-271.8 631.81,-252.12 643.06,-236.45"/>
<polygon fill="blue" stroke="black" points="645.98,-238.38 648.97,-228.22 640.29,-234.3 645.98,-238.38"/>
</g>
<!-- fastapi_websockets -->
<g id="node13" class="node">
<title>fastapi_websockets</title><style>.edge>path:hover{stroke-width:8}</style>
<ellipse fill="#b3b34c" stroke="black" cx="456.33" cy="-390.18" rx="52.15" ry="21.43"/>
<text text-anchor="middle" x="456.33" y="-393.18" font-family="Helvetica,sans-Serif" font-size="10.00" fill="#000000">fastapi.</text>
<text text-anchor="middle" x="456.33" y="-382.18" font-family="Helvetica,sans-Serif" font-size="10.00" fill="#000000">websockets</text>
</g>
<!-- fastapi_websockets&#45;&gt;fastapi -->
<g id="edge19" class="edge">
<title>fastapi_websockets&#45;&gt;fastapi</title><style>.edge>path:hover{stroke-width:8}</style>
<path fill="none" stroke="black" d="M449.21,-368.85C443.94,-349.67 440.14,-321.46 456.33,-304.97"/>
</g>
<!-- slowapi -->
<g id="node15" class="node">
<title>slowapi</title><style>.edge>path:hover{stroke-width:8}</style>
<ellipse fill="#4cb3b3" stroke="black" cx="1070.33" cy="-127" rx="31.58" ry="18"/>
<text text-anchor="middle" x="1070.33" y="-124.5" font-family="Helvetica,sans-Serif" font-size="10.00" fill="#000000">slowapi</text>
</g>
<!-- slowapi&#45;&gt;main_py -->
<g id="edge20" class="edge">
<title>slowapi&#45;&gt;main_py</title><style>.edge>path:hover{stroke-width:8}</style>
<path fill="none" stroke="black" d="M1053.05,-111.41C1042.49,-100.66 1032.39,-85.74 1040.33,-73"/>
</g>
<!-- slowapi_errors -->
<g id="node16" class="node">
<title>slowapi_errors</title><style>.edge>path:hover{stroke-width:8}</style>
<ellipse fill="#3ab0b0" stroke="black" cx="1256.33" cy="-390.18" rx="50.75" ry="18"/>
<text text-anchor="middle" x="1256.33" y="-387.68" font-family="Helvetica,sans-Serif" font-size="10.00" fill="#000000">slowapi.errors</text>
</g>
<!-- slowapi_errors&#45;&gt;main_py -->
<g id="edge21" class="edge">
<title>slowapi_errors&#45;&gt;main_py</title><style>.edge>path:hover{stroke-width:8}</style>
<path fill="none" stroke="black" d="M1266.69,-372.36C1279.32,-349.58 1297.34,-307.99 1283.33,-274.98 1241.8,-177.2 1197.88,-170.59 1111.33,-109 1082.5,-88.49 1021.62,-103.03 1040.33,-73"/>
</g>
<!-- slowapi_extension -->
<g id="node17" class="node">
<title>slowapi_extension</title><style>.edge>path:hover{stroke-width:8}</style>
<ellipse fill="#439d9d" stroke="black" cx="1228.33" cy="-303.97" rx="45.92" ry="21.43"/>
<text text-anchor="middle" x="1228.33" y="-306.97" font-family="Helvetica,sans-Serif" font-size="10.00" fill="#000000">slowapi.</text>
<text text-anchor="middle" x="1228.33" y="-295.97" font-family="Helvetica,sans-Serif" font-size="10.00" fill="#000000">extension</text>
</g>
<!-- slowapi_errors&#45;&gt;slowapi_extension -->
<g id="edge22" class="edge">
<title>slowapi_errors&#45;&gt;slowapi_extension</title><style>.edge>path:hover{stroke-width:8}</style>
<path fill="none" stroke="black" d="M1250.66,-372.14C1247.1,-361.45 1242.42,-347.36 1238.26,-334.85"/>
<polygon fill="#3ab0b0" stroke="black" points="1241.55,-333.64 1235.07,-325.25 1234.9,-335.85 1241.55,-333.64"/>
</g>
<!-- slowapi_extension&#45;&gt;slowapi -->
<g id="edge23" class="edge">
<title>slowapi_extension&#45;&gt;slowapi</title><style>.edge>path:hover{stroke-width:8}</style>
<path fill="none" stroke="black" d="M1211.12,-283.92C1181.94,-251.61 1122.88,-186.2 1091.32,-151.25"/>
<polygon fill="#439d9d" stroke="black" points="1093.59,-148.54 1084.29,-143.47 1088.4,-153.23 1093.59,-148.54"/>
</g>
<!-- slowapi_util -->
<g id="node18" class="node">
<title>slowapi_util</title><style>.edge>path:hover{stroke-width:8}</style>
<ellipse fill="#49acac" stroke="black" cx="759.33" cy="-303.97" rx="42.94" ry="18"/>
<text text-anchor="middle" x="759.33" y="-301.47" font-family="Helvetica,sans-Serif" font-size="10.00" fill="#000000">slowapi.util</text>
</g>
<!-- slowapi_util&#45;&gt;main_py -->
<g id="edge24" class="edge">
<title>slowapi_util&#45;&gt;main_py</title><style>.edge>path:hover{stroke-width:8}</style>
<path fill="none" stroke="black" d="M788.35,-290.6C821.07,-275.54 874.37,-247.53 910.33,-210.99"/>
<path fill="none" stroke="black" d="M910.33,-208.99C930.38,-188.61 996.05,-152.78 1010.33,-128"/>
<path fill="none" stroke="black" d="M1010.33,-126C1023.84,-102.55 1026.01,-95.97 1040.33,-73"/>
</g>
<!-- slowapi_wrappers -->
<g id="node19" class="node">
<title>slowapi_wrappers</title><style>.edge>path:hover{stroke-width:8}</style>
<ellipse fill="#47c2c2" stroke="black" cx="1180.33" cy="-468.61" rx="43.68" ry="21.43"/>
<text text-anchor="middle" x="1180.33" y="-471.61" font-family="Helvetica,sans-Serif" font-size="10.00" fill="#000000">slowapi.</text>
<text text-anchor="middle" x="1180.33" y="-460.61" font-family="Helvetica,sans-Serif" font-size="10.00" fill="#000000">wrappers</text>
</g>
<!-- slowapi_wrappers&#45;&gt;slowapi_errors -->
<g id="edge25" class="edge">
<title>slowapi_wrappers&#45;&gt;slowapi_errors</title><style>.edge>path:hover{stroke-width:8}</style>
<path fill="none" stroke="black" d="M1198.72,-449.1C1209,-438.77 1221.92,-425.78 1232.91,-414.72"/>
<polygon fill="#47c2c2" stroke="black" points="1235.59,-416.99 1240.16,-407.43 1230.63,-412.06 1235.59,-416.99"/>
</g>
<!-- slowapi_wrappers&#45;&gt;slowapi_extension -->
<g id="edge26" class="edge">
<title>slowapi_wrappers&#45;&gt;slowapi_extension</title><style>.edge>path:hover{stroke-width:8}</style>
<path fill="none" stroke="black" d="M1181.83,-447.16C1183.73,-426.91 1187.85,-395.22 1196.33,-368.97 1200.22,-356.9 1206.1,-344.28 1211.76,-333.47"/>
<polygon fill="#47c2c2" stroke="black" points="1214.94,-334.95 1216.62,-324.49 1208.78,-331.61 1214.94,-334.95"/>
</g>
<!-- starlette -->
<g id="node20" class="node">
<title>starlette</title><style>.edge>path:hover{stroke-width:8}</style>
<ellipse fill="#1010f9" stroke="black" cx="808.33" cy="-547.03" rx="34.29" ry="18"/>
<text text-anchor="middle" x="808.33" y="-544.53" font-family="Helvetica,sans-Serif" font-size="10.00" fill="#ffffff">starlette</text>
</g>
<!-- starlette&#45;&gt;fastapi -->
<g id="edge27" class="edge">
<title>starlette&#45;&gt;fastapi</title><style>.edge>path:hover{stroke-width:8}</style>
<path fill="none" stroke="black" d="M132.33,-302.97C105.56,-272.07 112.15,-246.55 132.33,-210.99"/>
<path fill="none" stroke="black" d="M132.33,-208.99C159.35,-161.36 198.38,-190.42 252.33,-181 384.48,-157.91 425.35,-181.66 558.42,-144.71"/>
<polygon fill="#1010f9" stroke="black" points="559.5,-148.04 568.17,-141.94 557.59,-141.31 559.5,-148.04"/>
</g>
<!-- starlette&#45;&gt;fastapi_applications -->
<g id="edge28" class="edge">
<title>starlette&#45;&gt;fastapi_applications</title><style>.edge>path:hover{stroke-width:8}</style>
<path fill="none" stroke="black" d="M777.05,-539.67C742.51,-530.61 691.78,-510.36 692.33,-469.61"/>
<path fill="none" stroke="black" d="M692.33,-467.61C693.1,-410.25 805.86,-447.74 796.33,-391.18"/>
<path fill="none" stroke="black" d="M796.33,-389.18C794.28,-377.02 787.17,-376.38 777.33,-368.97 749.38,-347.91 730.61,-359.08 707.33,-332.97 683.26,-305.97 671.31,-265.16 665.74,-238.29"/>
<polygon fill="#1010f9" stroke="black" points="669.16,-237.55 663.84,-228.39 662.28,-238.87 669.16,-237.55"/>
</g>
<!-- starlette&#45;&gt;fastapi_background -->
<g id="edge29" class="edge">
<title>starlette&#45;&gt;fastapi_background</title><style>.edge>path:hover{stroke-width:8}</style>
<path fill="none" stroke="black" d="M775.89,-541.33C727.72,-533.16 635.89,-512.86 570.33,-469.61"/>
<path fill="none" stroke="black" d="M570.33,-467.61C465.47,-398.43 403.07,-472.53 293.33,-411.39 282.56,-405.39 284.68,-397.87 274.33,-391.18"/>
<path fill="none" stroke="black" d="M274.33,-389.18C223.85,-356.55 197.24,-371.76 151.33,-332.97 139.84,-323.26 142.17,-316.34 132.33,-304.97"/>
<path fill="none" stroke="black" d="M132.33,-302.97C113.46,-281.19 92.03,-256.56 76.11,-238.28"/>
<polygon fill="#1010f9" stroke="black" points="78.41,-235.59 69.2,-230.35 73.13,-240.19 78.41,-235.59"/>
</g>
<!-- starlette&#45;&gt;fastapi_datastructures -->
<g id="edge30" class="edge">
<title>starlette&#45;&gt;fastapi_datastructures</title><style>.edge>path:hover{stroke-width:8}</style>
<path fill="none" stroke="black" d="M570.33,-467.61C554.96,-457.47 556.25,-435.86 560.66,-418.2"/>
<polygon fill="#1010f9" stroke="black" points="564.08,-418.96 563.51,-408.38 557.36,-417.01 564.08,-418.96"/>
</g>
<!-- starlette&#45;&gt;fastapi_exceptions -->
<g id="edge31" class="edge">
<title>starlette&#45;&gt;fastapi_exceptions</title><style>.edge>path:hover{stroke-width:8}</style>
<path fill="none" stroke="black" d="M570.33,-467.61C549.92,-454.14 620.62,-425.39 671.53,-407.24"/>
<polygon fill="#1010f9" stroke="black" points="672.83,-410.5 681.1,-403.87 670.51,-403.89 672.83,-410.5"/>
</g>
<!-- starlette&#45;&gt;fastapi_middleware -->
<g id="edge32" class="edge">
<title>starlette&#45;&gt;fastapi_middleware</title><style>.edge>path:hover{stroke-width:8}</style>
<path fill="none" stroke="black" d="M823.47,-530.46C833.17,-519.77 845.37,-504.84 853.33,-489.82 880.34,-438.82 896.77,-373 904.65,-335.23"/>
<polygon fill="#1010f9" stroke="black" points="908.1,-335.86 906.65,-325.36 901.24,-334.47 908.1,-335.86"/>
</g>
<!-- starlette&#45;&gt;fastapi_middleware_cors -->
<g id="edge33" class="edge">
<title>starlette&#45;&gt;fastapi_middleware_cors</title><style>.edge>path:hover{stroke-width:8}</style>
<path fill="none" stroke="black" d="M833.5,-534.44C897.79,-504.75 1064.59,-427.21 1087.33,-411.39 1097.96,-403.99 1106.85,-404.05 1108.33,-391.18"/>
<path fill="none" stroke="black" d="M1108.33,-389.18C1130.28,-359.56 1066.92,-364.19 1047.33,-332.97 1031.2,-307.27 1021.73,-274.11 1016.42,-248.85"/>
<polygon fill="#1010f9" stroke="black" points="1019.83,-248.03 1014.45,-238.9 1012.96,-249.39 1019.83,-248.03"/>
</g>
<!-- starlette&#45;&gt;fastapi_requests -->
<g id="edge34" class="edge">
<title>starlette&#45;&gt;fastapi_requests</title><style>.edge>path:hover{stroke-width:8}</style>
<path fill="none" stroke="black" d="M570.33,-467.61C502.14,-422.62 472.23,-438.95 395.33,-411.39 392.09,-410.23 388.75,-409 385.41,-407.73"/>
<polygon fill="#1010f9" stroke="black" points="386.62,-404.45 376.03,-404.12 384.11,-410.98 386.62,-404.45"/>
</g>
<!-- starlette&#45;&gt;fastapi_responses -->
<g id="edge35" class="edge">
<title>starlette&#45;&gt;fastapi_responses</title><style>.edge>path:hover{stroke-width:8}</style>
<path fill="none" stroke="black" d="M274.33,-389.18C249.75,-373.41 278.6,-287.03 296.39,-240.58"/>
<polygon fill="#1010f9" stroke="black" points="299.73,-241.63 300.1,-231.04 293.21,-239.09 299.73,-241.63"/>
</g>
<!-- starlette&#45;&gt;fastapi_routing -->
<g id="edge36" class="edge">
<title>starlette&#45;&gt;fastapi_routing</title><style>.edge>path:hover{stroke-width:8}</style>
<path fill="none" stroke="black" d="M570.33,-467.61C531.37,-441.91 661.64,-433.66 642.33,-391.18"/>
<path fill="none" stroke="black" d="M642.33,-389.18C633.23,-369.18 621.11,-347.55 611.45,-331.23"/>
<polygon fill="#1010f9" stroke="black" points="614.24,-329.06 606.1,-322.28 608.23,-332.65 614.24,-329.06"/>
</g>
<!-- starlette&#45;&gt;fastapi_websockets -->
<g id="edge37" class="edge">
<title>starlette&#45;&gt;fastapi_websockets</title><style>.edge>path:hover{stroke-width:8}</style>
<path fill="none" stroke="black" d="M570.33,-467.61C543.64,-450 513.61,-429.85 491.07,-414.66"/>
<polygon fill="#1010f9" stroke="black" points="492.76,-411.58 482.51,-408.9 488.85,-417.39 492.76,-411.58"/>
</g>
<!-- starlette&#45;&gt;slowapi_errors -->
<g id="edge38" class="edge">
<title>starlette&#45;&gt;slowapi_errors</title><style>.edge>path:hover{stroke-width:8}</style>
<path fill="none" stroke="black" d="M831.53,-533.61C838.09,-530.59 845.34,-527.69 852.33,-525.82 1016.59,-481.69 1080.56,-564.61 1233.33,-489.82 1244.4,-484.4 1244.27,-478.94 1252.33,-469.61"/>
<path fill="none" stroke="black" d="M1252.33,-467.61C1263.8,-454.33 1264.5,-434.41 1262.49,-418.23"/>
<polygon fill="#1010f9" stroke="black" points="1265.92,-417.56 1260.86,-408.25 1259.01,-418.69 1265.92,-417.56"/>
</g>
<!-- starlette&#45;&gt;slowapi_extension -->
<g id="edge39" class="edge">
<title>starlette&#45;&gt;slowapi_extension</title><style>.edge>path:hover{stroke-width:8}</style>
<path fill="none" stroke="black" d="M1108.33,-389.18C1109.5,-378.92 1157.39,-347.84 1192.31,-326.45"/>
<polygon fill="#1010f9" stroke="black" points="1194.14,-329.43 1200.87,-321.24 1190.5,-323.45 1194.14,-329.43"/>
</g>
<!-- starlette&#45;&gt;slowapi_util -->
<g id="edge40" class="edge">
<title>starlette&#45;&gt;slowapi_util</title><style>.edge>path:hover{stroke-width:8}</style>
<path fill="none" stroke="black" d="M692.33,-467.61C693.29,-395.94 829.88,-462.71 834.33,-391.18"/>
<path fill="none" stroke="black" d="M834.33,-389.18C836.02,-361.87 813.52,-339.29 792.73,-324.4"/>
<polygon fill="#1010f9" stroke="black" points="794.54,-321.41 784.3,-318.7 790.62,-327.2 794.54,-321.41"/>
</g>
<!-- starlette_exceptions -->
<g id="node21" class="node">
<title>starlette_exceptions</title><style>.edge>path:hover{stroke-width:8}</style>
<ellipse fill="#2222e7" stroke="black" cx="910.33" cy="-547.03" rx="49.49" ry="21.43"/>
<text text-anchor="middle" x="910.33" y="-550.03" font-family="Helvetica,sans-Serif" font-size="10.00" fill="#ffffff">starlette.</text>
<text text-anchor="middle" x="910.33" y="-539.03" font-family="Helvetica,sans-Serif" font-size="10.00" fill="#ffffff">exceptions</text>
</g>
<!-- starlette_exceptions&#45;&gt;fastapi_applications -->
<g id="edge41" class="edge">
<title>starlette_exceptions&#45;&gt;fastapi_applications</title><style>.edge>path:hover{stroke-width:8}</style>
<path fill="none" stroke="black" d="M905.23,-525.77C890.71,-469.42 847.82,-312.52 811.33,-274.98 783.87,-246.74 741.96,-230.3 709.41,-221.17"/>
<polygon fill="#2222e7" stroke="black" points="710.2,-217.76 699.64,-218.57 708.4,-224.52 710.2,-217.76"/>
</g>
<!-- starlette_exceptions&#45;&gt;fastapi_exceptions -->
<g id="edge42" class="edge">
<title>starlette_exceptions&#45;&gt;fastapi_exceptions</title><style>.edge>path:hover{stroke-width:8}</style>
<path fill="none" stroke="black" d="M872.51,-533.06C825.27,-516.83 750.45,-490.99 749.33,-489.82 731.75,-471.51 724.44,-443.22 721.42,-421.62"/>
<polygon fill="#2222e7" stroke="black" points="724.88,-421.16 720.25,-411.63 717.93,-421.97 724.88,-421.16"/>
</g>
<!-- starlette_exceptions&#45;&gt;fastapi_routing -->
<g id="edge43" class="edge">
<title>starlette_exceptions&#45;&gt;fastapi_routing</title><style>.edge>path:hover{stroke-width:8}</style>
<path fill="none" stroke="black" d="M873.72,-532.7C866.36,-530.24 858.64,-527.82 851.33,-525.82 775.59,-505.05 737.73,-541.19 678.33,-489.82 643.03,-459.29 661.64,-433.66 642.33,-391.18"/>
</g>
<!-- starlette_exceptions&#45;&gt;slowapi_errors -->
<g id="edge44" class="edge">
<title>starlette_exceptions&#45;&gt;slowapi_errors</title><style>.edge>path:hover{stroke-width:8}</style>
<path fill="none" stroke="black" d="M959.97,-546.91C1026.22,-546.04 1145.39,-537.21 1233.33,-489.82 1244.18,-483.97 1244.27,-478.94 1252.33,-469.61"/>
</g>
<!-- starlette_requests -->
<g id="node24" class="node">
<title>starlette_requests</title><style>.edge>path:hover{stroke-width:8}</style>
<ellipse fill="#1818dd" stroke="black" cx="801.33" cy="-468.61" rx="43.27" ry="21.43"/>
<text text-anchor="middle" x="801.33" y="-471.61" font-family="Helvetica,sans-Serif" font-size="10.00" fill="#ffffff">starlette.</text>
<text text-anchor="middle" x="801.33" y="-460.61" font-family="Helvetica,sans-Serif" font-size="10.00" fill="#ffffff">requests</text>
</g>
<!-- starlette_exceptions&#45;&gt;starlette_requests -->
<g id="edge45" class="edge">
<title>starlette_exceptions&#45;&gt;starlette_requests</title><style>.edge>path:hover{stroke-width:8}</style>
<path fill="none" stroke="black" d="M885.32,-528.5C870.01,-517.76 850.26,-503.92 833.76,-492.35"/>
<polygon fill="#2222e7" stroke="black" points="835.66,-489.41 825.47,-486.53 831.65,-495.14 835.66,-489.41"/>
</g>
<!-- starlette_middleware -->
<g id="node22" class="node">
<title>starlette_middleware</title><style>.edge>path:hover{stroke-width:8}</style>
<ellipse fill="#3b3bce" stroke="black" cx="990.33" cy="-390.18" rx="52.15" ry="21.43"/>
<text text-anchor="middle" x="990.33" y="-393.18" font-family="Helvetica,sans-Serif" font-size="10.00" fill="#ffffff">starlette.</text>
<text text-anchor="middle" x="990.33" y="-382.18" font-family="Helvetica,sans-Serif" font-size="10.00" fill="#ffffff">middleware</text>
</g>
<!-- starlette_middleware&#45;&gt;fastapi_applications -->
<g id="edge46" class="edge">
<title>starlette_middleware&#45;&gt;fastapi_applications</title><style>.edge>path:hover{stroke-width:8}</style>
<path fill="none" stroke="black" d="M995.65,-368.72C999.15,-350.74 1001.29,-324.47 990.33,-304.97"/>
<path fill="none" stroke="black" d="M990.33,-302.97C982.96,-289.87 983.83,-283.34 971.33,-274.98 929.05,-246.74 785.92,-225.89 709.82,-216.5"/>
<polygon fill="#3b3bce" stroke="black" points="709.9,-212.99 699.55,-215.26 709.05,-219.94 709.9,-212.99"/>
</g>
<!-- starlette_middleware&#45;&gt;fastapi_middleware -->
<g id="edge47" class="edge">
<title>starlette_middleware&#45;&gt;fastapi_middleware</title><style>.edge>path:hover{stroke-width:8}</style>
<path fill="none" stroke="black" d="M972.17,-370.07C961.33,-358.66 947.4,-344 935.5,-331.48"/>
<polygon fill="#3b3bce" stroke="black" points="937.83,-328.84 928.41,-324.01 932.76,-333.67 937.83,-328.84"/>
</g>
<!-- starlette_middleware&#45;&gt;fastapi_middleware_cors -->
<g id="edge48" class="edge">
<title>starlette_middleware&#45;&gt;fastapi_middleware_cors</title><style>.edge>path:hover{stroke-width:8}</style>
<path fill="none" stroke="black" d="M990.33,-302.97C980.8,-286.03 984.45,-264.97 991.08,-247.27"/>
<polygon fill="#3b3bce" stroke="black" points="994.39,-248.42 995.01,-237.84 987.93,-245.73 994.39,-248.42"/>
</g>
<!-- starlette_middleware_cors -->
<g id="node23" class="node">
<title>starlette_middleware_cors</title><style>.edge>path:hover{stroke-width:8}</style>
<ellipse fill="#4c4cb3" stroke="black" cx="1110.33" cy="-303.97" rx="54.39" ry="28.98"/>
<text text-anchor="middle" x="1110.33" y="-312.47" font-family="Helvetica,sans-Serif" font-size="10.00" fill="#ffffff">starlette.</text>
<text text-anchor="middle" x="1110.33" y="-301.47" font-family="Helvetica,sans-Serif" font-size="10.00" fill="#ffffff">middleware.</text>
<text text-anchor="middle" x="1110.33" y="-290.47" font-family="Helvetica,sans-Serif" font-size="10.00" fill="#ffffff">cors</text>
</g>
<!-- starlette_middleware_cors&#45;&gt;fastapi_middleware_cors -->
<g id="edge49" class="edge">
<title>starlette_middleware_cors&#45;&gt;fastapi_middleware_cors</title><style>.edge>path:hover{stroke-width:8}</style>
<path fill="none" stroke="black" d="M1083.79,-278.57C1071.7,-267.44 1057.24,-254.14 1044.36,-242.29"/>
<polygon fill="#4c4cb3" stroke="black" points="1046.71,-239.71 1036.99,-235.51 1041.98,-244.86 1046.71,-239.71"/>
</g>
<!-- starlette_requests&#45;&gt;fastapi_applications -->
<g id="edge50" class="edge">
<title>starlette_requests&#45;&gt;fastapi_applications</title><style>.edge>path:hover{stroke-width:8}</style>
<path fill="none" stroke="black" d="M801.12,-447.36C800.69,-431.88 799.51,-410.06 796.33,-391.18"/>
</g>
<!-- starlette_requests&#45;&gt;fastapi_requests -->
<g id="edge51" class="edge">
<title>starlette_requests&#45;&gt;fastapi_requests</title><style>.edge>path:hover{stroke-width:8}</style>
<path fill="none" stroke="black" d="M763.12,-458.61C745.84,-454.77 725.13,-450.47 706.33,-447.39 569.01,-424.89 530.27,-445.32 395.33,-411.39 391.74,-410.49 388.08,-409.4 384.43,-408.2"/>
<polygon fill="#1818dd" stroke="black" points="385.51,-404.86 374.91,-404.8 383.16,-411.46 385.51,-404.86"/>
</g>
<!-- starlette_requests&#45;&gt;fastapi_routing -->
<g id="edge52" class="edge">
<title>starlette_requests&#45;&gt;fastapi_routing</title><style>.edge>path:hover{stroke-width:8}</style>
<path fill="none" stroke="black" d="M759.95,-462.32C720,-454.61 662.67,-435.93 642.33,-391.18"/>
</g>
<!-- starlette_requests&#45;&gt;slowapi_extension -->
<g id="edge53" class="edge">
<title>starlette_requests&#45;&gt;slowapi_extension</title><style>.edge>path:hover{stroke-width:8}</style>
<path fill="none" stroke="black" d="M844.08,-465.15C895.97,-460.61 984.76,-447.75 1051.33,-411.39 1074.89,-398.52 1072.22,-384.19 1094.33,-368.97 1126.1,-347.08 1138.57,-349.72 1173.33,-332.97 1178.64,-330.4 1184.22,-327.65 1189.7,-324.9"/>
<polygon fill="#1818dd" stroke="black" points="1191.41,-327.95 1198.76,-320.32 1188.25,-321.71 1191.41,-327.95"/>
</g>
<!-- starlette_requests&#45;&gt;slowapi_util -->
<g id="edge54" class="edge">
<title>starlette_requests&#45;&gt;slowapi_util</title><style>.edge>path:hover{stroke-width:8}</style>
<path fill="none" stroke="black" d="M814.19,-448.14C822.9,-433.24 833.05,-411.81 834.33,-391.18"/>
</g>
<!-- starlette_status -->
<g id="node25" class="node">
<title>starlette_status</title><style>.edge>path:hover{stroke-width:8}</style>
<ellipse fill="#5353b6" stroke="black" cx="203.33" cy="-303.97" rx="43.27" ry="21.43"/>
<text text-anchor="middle" x="203.33" y="-306.97" font-family="Helvetica,sans-Serif" font-size="10.00" fill="#ffffff">starlette.</text>
<text text-anchor="middle" x="203.33" y="-295.97" font-family="Helvetica,sans-Serif" font-size="10.00" fill="#ffffff">status</text>
</g>
<!-- starlette_status&#45;&gt;fastapi -->
<g id="edge55" class="edge">
<title>starlette_status&#45;&gt;fastapi</title><style>.edge>path:hover{stroke-width:8}</style>
<path fill="none" stroke="black" d="M176.08,-287.02C149.73,-269.42 116,-239.77 132.33,-210.99"/>
</g>
<!-- uvicorn -->
<g id="node26" class="node">
<title>uvicorn</title><style>.edge>path:hover{stroke-width:8}</style>
<polygon fill="blue" stroke="black" points="1280.33,-145 1226.33,-145 1226.33,-109 1280.33,-109 1280.33,-145"/>
<text text-anchor="middle" x="1253.33" y="-124.5" font-family="Helvetica,sans-Serif" font-size="10.00" fill="white">uvicorn</text>
</g>
<!-- uvicorn&#45;&gt;main_py -->
<g id="edge56" class="edge">
<title>uvicorn&#45;&gt;main_py</title><style>.edge>path:hover{stroke-width:8}</style>
<path fill="none" stroke="black" d="M1226.21,-121.89C1166.6,-112.54 1030.23,-89.21 1040.33,-73"/>
</g>
<!-- uvicorn_config -->
<g id="node27" class="node">
<title>uvicorn_config</title><style>.edge>path:hover{stroke-width:8}</style>
<polygon fill="blue" stroke="black" points="1415.83,-321.97 1330.83,-321.97 1330.83,-285.97 1415.83,-285.97 1415.83,-321.97"/>
<text text-anchor="middle" x="1373.33" y="-301.47" font-family="Helvetica,sans-Serif" font-size="10.00" fill="white">uvicorn.config</text>
</g>
<!-- uvicorn_config&#45;&gt;uvicorn -->
<g id="edge57" class="edge">
<title>uvicorn_config&#45;&gt;uvicorn</title><style>.edge>path:hover{stroke-width:8}</style>
<path fill="none" stroke="black" d="M1353.92,-285.75C1340.87,-273.53 1323.83,-256.29 1311.33,-238.98 1291.83,-212 1274.91,-177.59 1264.45,-154.29"/>
<polygon fill="blue" stroke="black" points="1267.61,-152.78 1260.38,-145.04 1261.21,-155.6 1267.61,-152.78"/>
</g>
<!-- uvicorn_main -->
<g id="node28" class="node">
<title>uvicorn_main</title><style>.edge>path:hover{stroke-width:8}</style>
<polygon fill="blue" stroke="black" points="1400.33,-227.99 1320.33,-227.99 1320.33,-191.99 1400.33,-191.99 1400.33,-227.99"/>
<text text-anchor="middle" x="1360.33" y="-207.49" font-family="Helvetica,sans-Serif" font-size="10.00" fill="white">uvicorn.main</text>
</g>
<!-- uvicorn_config&#45;&gt;uvicorn_main -->
<g id="edge58" class="edge">
<title>uvicorn_config&#45;&gt;uvicorn_main</title><style>.edge>path:hover{stroke-width:8}</style>
<path fill="none" stroke="black" d="M1370.88,-285.67C1368.99,-272.31 1366.34,-253.57 1364.17,-238.21"/>
<polygon fill="blue" stroke="black" points="1367.63,-237.63 1362.76,-228.22 1360.69,-238.61 1367.63,-237.63"/>
</g>
<!-- uvicorn_main&#45;&gt;uvicorn -->
<g id="edge59" class="edge">
<title>uvicorn_main&#45;&gt;uvicorn</title><style>.edge>path:hover{stroke-width:8}</style>
<path fill="none" stroke="black" d="M1337.63,-191.82C1322.03,-180 1301.12,-164.18 1284.03,-151.24"/>
<polygon fill="blue" stroke="black" points="1286.07,-148.4 1275.99,-145.15 1281.85,-153.98 1286.07,-148.4"/>
</g>
</g>
</svg>
