<?xml version="1.0" encoding="UTF-8" standalone="no"?>
<!DOCTYPE svg PUBLIC "-//W3C//DTD SVG 1.1//EN"
 "http://www.w3.org/Graphics/SVG/1.1/DTD/svg11.dtd">
<!-- Generated by graphviz version 2.42.4 (0)
 -->
<!-- Title: G Pages: 1 -->
<svg width="495pt" height="369pt"
 viewBox="0.00 0.00 495.00 369.00" xmlns="http://www.w3.org/2000/svg" xmlns:xlink="http://www.w3.org/1999/xlink">
<g id="graph0" class="graph" transform="scale(1 1) rotate(0) translate(4 365)">
<title>G</title><style>.edge>path:hover{stroke-width:8}</style>
<polygon fill="white" stroke="transparent" points="-4,4 -4,-365 491,-365 491,4 -4,4"/>
<!-- _pytest -->
<g id="node1" class="node">
<title>_pytest</title><style>.edge>path:hover{stroke-width:8}</style>
<polygon fill="#f98510" stroke="black" points="54,-361 51,-365 30,-365 27,-361 0,-361 0,-325 54,-325 54,-361"/>
<text text-anchor="middle" x="27" y="-340.5" font-family="Helvetica,sans-Serif" font-size="10.00" fill="#000000">_pytest</text>
</g>
<!-- pytest -->
<g id="node8" class="node">
<title>pytest</title><style>.edge>path:hover{stroke-width:8}</style>
<polygon fill="blue" stroke="black" points="129,-217 126,-221 105,-221 102,-217 75,-217 75,-181 129,-181 129,-217"/>
<text text-anchor="middle" x="102" y="-196.5" font-family="Helvetica,sans-Serif" font-size="10.00" fill="white">pytest</text>
</g>
<!-- _pytest&#45;&gt;pytest -->
<g id="edge1" class="edge">
<title>_pytest&#45;&gt;pytest</title><style>.edge>path:hover{stroke-width:8}</style>
<path fill="none" stroke="black" d="M28.59,-314.79C30.64,-296.36 35.33,-272 46,-253 52.14,-242.06 61.3,-232.02 70.43,-223.7"/>
<polygon fill="#f98510" stroke="black" points="25.09,-314.59 27.66,-324.87 32.06,-315.24 25.09,-314.59"/>
<polygon fill="#f98510" stroke="black" points="72.76,-226.31 78.04,-217.12 68.18,-221.02 72.76,-226.31"/>
</g>
<!-- aiofiles -->
<g id="node2" class="node">
<title>aiofiles</title><style>.edge>path:hover{stroke-width:8}</style>
<polygon fill="#b0b03a" stroke="black" points="109,-289 106,-293 85,-293 82,-289 55,-289 55,-253 109,-253 109,-289"/>
<text text-anchor="middle" x="82" y="-268.5" font-family="Helvetica,sans-Serif" font-size="10.00" fill="#000000">aiofiles</text>
</g>
<!-- backend -->
<g id="node4" class="node">
<title>backend</title><style>.edge>path:hover{stroke-width:8}</style>
<polygon fill="#10f910" stroke="black" points="406.5,-36 403.5,-40 382.5,-40 379.5,-36 349.5,-36 349.5,0 406.5,0 406.5,-36"/>
<text text-anchor="middle" x="378" y="-15.5" font-family="Helvetica,sans-Serif" font-size="10.00" fill="#000000">backend</text>
</g>
<!-- aiofiles&#45;&gt;backend -->
<g id="edge2" class="edge">
<title>aiofiles&#45;&gt;backend</title><style>.edge>path:hover{stroke-width:8}</style>
<path fill="none" stroke="black" d="M109.07,-256.98C147.86,-238.21 214.94,-205.19 218,-200"/>
<path fill="none" stroke="black" d="M218,-198C234.96,-169.29 219.26,-149.2 245,-128"/>
</g>
<!-- aiohttp -->
<g id="node3" class="node">
<title>aiohttp</title><style>.edge>path:hover{stroke-width:8}</style>
<polygon fill="blue" stroke="black" points="181,-289 178,-293 157,-293 154,-289 127,-289 127,-253 181,-253 181,-289"/>
<text text-anchor="middle" x="154" y="-268.5" font-family="Helvetica,sans-Serif" font-size="10.00" fill="white">aiohttp</text>
</g>
<!-- aiohttp&#45;&gt;backend -->
<g id="edge3" class="edge">
<title>aiohttp&#45;&gt;backend</title><style>.edge>path:hover{stroke-width:8}</style>
<path fill="none" stroke="black" d="M173.4,-252.98C187.46,-239.74 206.02,-220.27 218,-200"/>
</g>
<!-- dbus_next -->
<g id="node5" class="node">
<title>dbus_next</title><style>.edge>path:hover{stroke-width:8}</style>
<polygon fill="blue" stroke="black" points="266.5,-289 263.5,-293 242.5,-293 239.5,-289 199.5,-289 199.5,-253 266.5,-253 266.5,-289"/>
<text text-anchor="middle" x="233" y="-268.5" font-family="Helvetica,sans-Serif" font-size="10.00" fill="white">dbus_next</text>
</g>
<!-- dbus_next&#45;&gt;backend -->
<g id="edge4" class="edge">
<title>dbus_next&#45;&gt;backend</title><style>.edge>path:hover{stroke-width:8}</style>
<path fill="none" stroke="black" d="M222.83,-252.78C215.48,-237.89 208.39,-216.27 218,-200"/>
</g>
<!-- fastapi -->
<g id="node6" class="node">
<title>fastapi</title><style>.edge>path:hover{stroke-width:8}</style>
<polygon fill="blue" stroke="black" points="300,-217 297,-221 276,-221 273,-217 246,-217 246,-181 300,-181 300,-217"/>
<text text-anchor="middle" x="273" y="-196.5" font-family="Helvetica,sans-Serif" font-size="10.00" fill="white">fastapi</text>
</g>
<!-- fastapi&#45;&gt;backend -->
<g id="edge5" class="edge">
<title>fastapi&#45;&gt;backend</title><style>.edge>path:hover{stroke-width:8}</style>
<path fill="none" stroke="black" d="M256.81,-180.86C243.44,-164.73 229.04,-141.15 245,-128"/>
</g>
<!-- PIL -->
<g id="node7" class="node">
<title>PIL</title><style>.edge>path:hover{stroke-width:8}</style>
<polygon fill="#ef0606" stroke="black" points="415,-289 412,-293 391,-293 388,-289 361,-289 361,-253 415,-253 415,-289"/>
<text text-anchor="middle" x="388" y="-268.5" font-family="Helvetica,sans-Serif" font-size="10.00" fill="#ffffff">PIL</text>
</g>
<!-- PIL&#45;&gt;backend -->
<g id="edge6" class="edge">
<title>PIL&#45;&gt;backend</title><style>.edge>path:hover{stroke-width:8}</style>
<path fill="none" stroke="black" d="M387.16,-252.92C385.75,-226.22 382.64,-172.99 378,-128"/>
<path fill="none" stroke="black" d="M378,-126C374.89,-102.65 371.63,-95.68 378,-73"/>
</g>
<!-- pytest&#45;&gt;backend -->
<g id="edge8" class="edge">
<title>pytest&#45;&gt;backend</title><style>.edge>path:hover{stroke-width:8}</style>
<path fill="none" stroke="black" d="M129.19,-189.04C159.67,-178.07 209.48,-157.26 245,-128"/>
<path fill="none" stroke="black" d="M245,-126C294.11,-85.54 360.79,-134.26 378,-73"/>
<path fill="none" stroke="black" d="M378,-72C380.31,-63.78 380.95,-54.55 380.82,-46.13"/>
<polygon fill="blue" stroke="black" points="384.31,-45.84 380.31,-36.03 377.31,-46.19 384.31,-45.84"/>
</g>
<!-- slowapi -->
<g id="node9" class="node">
<title>slowapi</title><style>.edge>path:hover{stroke-width:8}</style>
<polygon fill="#4c4cb3" stroke="black" points="350,-145 347,-149 326,-149 323,-145 296,-145 296,-109 350,-109 350,-145"/>
<text text-anchor="middle" x="323" y="-124.5" font-family="Helvetica,sans-Serif" font-size="10.00" fill="#ffffff">slowapi</text>
</g>
<!-- slowapi&#45;&gt;backend -->
<g id="edge9" class="edge">
<title>slowapi&#45;&gt;backend</title><style>.edge>path:hover{stroke-width:8}</style>
<path fill="none" stroke="black" d="M350.03,-109.53C361.75,-100.5 373.77,-88.06 378,-73"/>
</g>
<!-- starlette -->
<g id="node10" class="node">
<title>starlette</title><style>.edge>path:hover{stroke-width:8}</style>
<polygon fill="#8510f9" stroke="black" points="343,-289 340,-293 319,-293 316,-289 285,-289 285,-253 343,-253 343,-289"/>
<text text-anchor="middle" x="314" y="-268.5" font-family="Helvetica,sans-Serif" font-size="10.00" fill="#ffffff">starlette</text>
</g>
<!-- starlette&#45;&gt;fastapi -->
<g id="edge10" class="edge">
<title>starlette&#45;&gt;fastapi</title><style>.edge>path:hover{stroke-width:8}</style>
<path fill="none" stroke="black" d="M303.87,-252.7C299.15,-244.64 293.44,-234.89 288.22,-225.98"/>
<polygon fill="#8510f9" stroke="black" points="291.09,-223.96 283.02,-217.1 285.05,-227.5 291.09,-223.96"/>
</g>
<!-- starlette&#45;&gt;slowapi -->
<g id="edge11" class="edge">
<title>starlette&#45;&gt;slowapi</title><style>.edge>path:hover{stroke-width:8}</style>
<path fill="none" stroke="black" d="M315.09,-252.87C316.62,-228.67 319.44,-184.21 321.26,-155.39"/>
<polygon fill="#8510f9" stroke="black" points="324.77,-155.39 321.91,-145.19 317.78,-154.95 324.77,-155.39"/>
</g>
<!-- uvicorn -->
<g id="node11" class="node">
<title>uvicorn</title><style>.edge>path:hover{stroke-width:8}</style>
<polygon fill="blue" stroke="black" points="460,-145 457,-149 436,-149 433,-145 406,-145 406,-109 460,-109 460,-145"/>
<text text-anchor="middle" x="433" y="-124.5" font-family="Helvetica,sans-Serif" font-size="10.00" fill="white">uvicorn</text>
</g>
<!-- uvicorn&#45;&gt;backend -->
<g id="edge12" class="edge">
<title>uvicorn&#45;&gt;backend</title><style>.edge>path:hover{stroke-width:8}</style>
<path fill="none" stroke="black" d="M405.91,-114.03C389.66,-104.85 373.01,-90.75 378,-73"/>
</g>
<!-- yaml -->
<g id="node12" class="node">
<title>yaml</title><style>.edge>path:hover{stroke-width:8}</style>
<polygon fill="blue" stroke="black" points="487,-289 484,-293 463,-293 460,-289 433,-289 433,-253 487,-253 487,-289"/>
<text text-anchor="middle" x="460" y="-268.5" font-family="Helvetica,sans-Serif" font-size="10.00" fill="white">yaml</text>
</g>
<!-- yaml&#45;&gt;backend -->
<g id="edge13" class="edge">
<title>yaml&#45;&gt;backend</title><style>.edge>path:hover{stroke-width:8}</style>
<path fill="none" stroke="black" d="M444.3,-252.74C433.16,-239.39 419.01,-219.87 412,-200"/>
<path fill="none" stroke="black" d="M412,-198C400.5,-165.38 382.56,-162.28 378,-128"/>
</g>
<!-- yaml&#45;&gt;uvicorn -->
<g id="edge14" class="edge">
<title>yaml&#45;&gt;uvicorn</title><style>.edge>path:hover{stroke-width:8}</style>
<path fill="none" stroke="black" d="M412,-198C406.94,-183.65 411.23,-167.39 417.21,-154.15"/>
<polygon fill="blue" stroke="black" points="420.39,-155.63 421.77,-145.12 414.14,-152.48 420.39,-155.63"/>
</g>
</g>
</svg>
